<svg width="20" height="20" viewBox="0 0 20 20" fill="none" xmlns="http://www.w3.org/2000/svg">
<path d="M10 0C11.63 0 13.1635 0.397418 14.5223 1.08765L1.08778 14.5237C0.39723 13.1647 0 11.6303 0 9.99995C0 4.47254 4.47263 0 10 0ZM15.2209 1.47978L1.48141 15.2193C1.60322 15.4182 1.74598 15.6012 1.88102 15.7902L2.68034 14.9911L3.08893 15.3996L2.22356 16.2605C2.67301 16.8186 3.18017 17.3267 3.73803 17.7764L4.6004 16.9156L5.00903 17.3197L4.21126 18.122C4.39907 18.2561 4.58171 18.3974 4.77918 18.5186L18.5217 4.78358C18.3993 4.58389 18.2563 4.39974 18.1206 4.20966L17.6999 4.62733L17.2972 4.21877L17.778 3.7379C17.3288 3.1799 16.8212 2.67174 16.2636 2.22197L15.7813 2.70885L15.3711 2.3001L15.7918 1.87792C15.6029 1.74307 15.4194 1.60147 15.2209 1.47978ZM14.7928 2.87261L15.2014 3.28267L14.0491 4.43512L13.6404 4.02637L14.7928 2.87261ZM13.0664 4.6048L13.4691 5.01345L12.3167 6.1673L11.9081 5.75714L13.0664 4.6048ZM16.7173 4.7987L17.126 5.20736L15.9736 6.3597L15.565 5.95105L16.7173 4.7987ZM11.3342 6.33717L11.7428 6.74582L10.5845 7.89817L10.1818 7.48952L11.3342 6.33717ZM14.9851 6.52929L15.3952 6.93945L14.2414 8.0918L13.8327 7.68314L14.9851 6.52929ZM9.6019 8.06926L10.012 8.47792L8.85821 9.63027L8.44958 9.22161L9.6019 8.06926ZM13.2543 8.26148L13.6629 8.66562L12.5106 9.82408L12.1004 9.41392L13.2543 8.26148ZM7.8711 9.79553L8.27982 10.2041L7.12741 11.3625L6.71727 10.9538L7.8711 9.79553ZM11.528 9.98765L11.9307 10.3963L10.7783 11.5502L10.3697 11.146L11.528 9.98765ZM6.13888 11.5261L6.54748 11.9363L5.39518 13.0886L4.9865 12.68L6.13888 11.5261ZM9.79574 11.7197L10.2044 12.1284L9.04605 13.2808L8.64335 12.8721L9.79574 11.7197ZM4.41256 13.2582L4.81526 13.6669L3.66287 14.8207L3.25425 14.4107L4.41256 13.2582ZM8.06343 13.4521L8.47211 13.8608L7.31973 15.0131L6.9111 14.6045L8.06343 13.4521ZM6.33117 15.1829L6.74134 15.5931L5.58747 16.7454L5.17879 16.3367L6.33117 15.1829ZM18.9123 5.4777L5.47627 18.9123C6.83542 19.6028 8.36966 20 10 20C15.5274 20 20.0001 15.5274 20.0001 9.99995C20.0001 8.37002 19.6025 6.83647 18.9123 5.4777ZM18.0635 10.7692C18.1214 10.7678 18.1789 10.7795 18.2317 10.8034C18.2845 10.8273 18.3312 10.8628 18.3683 10.9073C18.4054 10.9518 18.432 11.0041 18.4461 11.0603C18.4602 11.1165 18.4614 11.1752 18.4496 11.2319C18.1627 12.7292 17.5931 14.023 16.8661 15.2013C16.8409 15.2469 16.8066 15.2868 16.7655 15.3188C16.7244 15.3507 16.6772 15.374 16.6268 15.3871C16.5764 15.4003 16.5239 15.4031 16.4724 15.3954C16.4209 15.3877 16.3715 15.3695 16.3272 15.3421C16.2829 15.3148 16.2446 15.2787 16.2147 15.236C16.1848 15.1934 16.1638 15.1452 16.1531 15.0943C16.1424 15.0433 16.1421 14.9907 16.1523 14.9396C16.1626 14.8885 16.183 14.8401 16.2125 14.7972C16.9025 13.6788 17.4267 12.4822 17.6939 11.0892C17.708 11.0073 17.7483 10.9321 17.8086 10.8749C17.869 10.8178 17.9463 10.7817 18.0289 10.7722C18.0404 10.7717 18.052 10.7717 18.0635 10.7722L18.0635 10.7692ZM15.7678 15.7708C15.8698 15.7708 15.9676 15.8113 16.0397 15.8834C16.1118 15.9555 16.1524 16.0533 16.1524 16.1553C16.1524 16.2573 16.1119 16.3551 16.0397 16.4273C15.9676 16.4994 15.8698 16.5399 15.7678 16.5399C15.6658 16.5399 15.5679 16.4994 15.4958 16.4273C15.4237 16.3551 15.3832 16.2573 15.3832 16.1553C15.3832 16.0533 15.4237 15.9555 15.4958 15.8834C15.568 15.8113 15.6658 15.7708 15.7678 15.7708Z" fill="#6B98BF"/>
</svg>
