<svg width="64" height="72" viewBox="0 0 64 72" fill="none" xmlns="http://www.w3.org/2000/svg">
<path d="M28.5714 14.8555C33.2284 14.8555 37.6098 15.9909 41.4921 17.963L3.10794 56.3517C1.13494 52.4688 0 48.0849 0 43.4267C0 27.6341 12.7789 14.8555 28.5714 14.8555ZM43.4882 19.0834L4.23258 58.3391C4.58063 58.9073 4.98849 59.4301 5.37433 59.9703L7.65808 57.6869L8.8255 58.8542L6.35302 61.3139C7.63715 62.9084 9.08616 64.3603 10.68 65.6451L13.144 63.1857L14.3115 64.3402L12.0321 66.6324C12.5687 67.0155 13.0906 67.4193 13.6547 67.7657L52.919 28.5228C52.5693 27.9523 52.1606 27.4261 51.7729 26.883L50.5711 28.0764L49.4205 26.9091L50.7942 25.5352C49.5106 23.9409 48.0606 22.489 46.4673 21.2039L45.0893 22.595L43.9174 21.4272L45.1194 20.2209C44.5795 19.8357 44.0552 19.4311 43.4882 19.0834ZM42.2649 23.0629L43.4324 24.2345L40.1401 27.5272L38.9724 26.3593L42.2649 23.0629ZM37.3326 28.012L38.4831 29.1796L35.1906 32.4763L34.0231 31.3044L37.3326 28.012ZM47.7636 28.566L48.9313 29.7336L45.6387 33.026L44.4713 31.8584L47.7636 28.566ZM32.3834 32.9616L33.5508 34.1292L30.2413 37.4216L29.0909 36.254L32.3834 32.9616ZM42.8144 33.5105L43.9862 34.6824L40.6895 37.9748L39.5218 36.8072L42.8144 33.5105ZM27.4339 37.9104L28.6058 39.078L25.3091 42.3704L24.1416 41.2029L27.4339 37.9104ZM37.8693 38.4596L39.0368 39.6143L35.7445 42.9242L34.5726 41.7523L37.8693 38.4596ZM22.4888 42.8426L23.6566 44.0099L20.364 47.3198L19.1921 46.1519L22.4888 42.8426ZM32.937 43.3915L34.0876 44.5591L30.795 47.8558L29.6276 46.7011L32.937 43.3915ZM17.5396 47.7871L18.707 48.959L15.4148 52.2514L14.2471 51.0839L17.5396 47.7871ZM27.9877 48.3404L29.1552 49.5079L25.8458 52.8006L24.6952 51.6328L27.9877 48.3404ZM12.6073 52.736L13.7578 53.9035L10.4653 57.2003L9.29782 56.0287L12.6073 52.736ZM23.0383 53.29L24.206 54.4576L20.9134 57.75L19.7459 56.5824L23.0383 53.29ZM18.089 58.235L19.2609 59.4069L15.9642 62.6993L14.7965 61.5318L18.089 58.235ZM54.035 30.506L15.6464 68.8906C19.5297 70.8633 23.9132 71.9982 28.5714 71.9982C44.364 71.9982 57.143 59.2192 57.143 43.4267C57.143 38.7697 56.0069 34.3882 54.035 30.506ZM51.6097 45.6245C51.7753 45.6204 51.9396 45.6538 52.0904 45.7221C52.2412 45.7905 52.3746 45.892 52.4807 46.0191C52.5868 46.1462 52.6628 46.2956 52.703 46.4562C52.7432 46.6168 52.7467 46.7845 52.713 46.9466C51.8932 51.2246 50.2658 54.921 48.1886 58.2876C48.1166 58.4178 48.0188 58.532 47.9013 58.6233C47.7838 58.7145 47.649 58.7809 47.5051 58.8186C47.3611 58.8562 47.211 58.8643 47.0639 58.8422C46.9167 58.8201 46.7756 58.7683 46.649 58.6901C46.5225 58.6118 46.4132 58.5087 46.3276 58.3869C46.2421 58.2651 46.1823 58.1274 46.1516 57.9818C46.121 57.8362 46.1202 57.6858 46.1494 57.5399C46.1786 57.394 46.2371 57.2555 46.3214 57.1329C48.2926 53.9377 49.7904 50.5188 50.554 46.5388C50.5942 46.3047 50.7092 46.0899 50.8817 45.9266C51.0543 45.7633 51.2751 45.6603 51.5111 45.6331C51.544 45.6316 51.577 45.6316 51.6099 45.6331L51.6097 45.6245ZM45.0506 59.9148C45.342 59.9148 45.6215 60.0304 45.8276 60.2365C46.0337 60.4425 46.1495 60.722 46.1495 61.0134C46.1495 61.3049 46.0337 61.5843 45.8277 61.7904C45.6216 61.9965 45.3421 62.1123 45.0506 62.1123C44.7592 62.1123 44.4797 61.9965 44.2736 61.7904C44.0675 61.5843 43.9517 61.3049 43.9517 61.0134C43.9518 60.722 44.0676 60.4425 44.2737 60.2365C44.4797 60.0304 44.7592 59.9148 45.0506 59.9148Z" fill="#6B98BF"/>
<path d="M42.064 22.8555C41.5627 22.8555 41.184 22.7168 40.928 22.4395C40.6827 22.1621 40.576 21.8101 40.608 21.3835C40.64 20.9568 40.832 20.5248 41.184 20.0875L46.032 13.9915H41.84C40.9973 13.9915 40.576 13.5861 40.576 12.7755C40.576 11.9755 40.9973 11.5755 41.84 11.5755H48.08C48.5813 11.5755 48.96 11.7141 49.216 11.9915C49.472 12.2688 49.5787 12.6208 49.536 13.0475C49.504 13.4741 49.312 13.9061 48.96 14.3435L44.096 20.4395H48.56C49.4027 20.4395 49.824 20.8395 49.824 21.6395C49.824 22.4501 49.4027 22.8555 48.56 22.8555H42.064Z" fill="#6B98BF"/>
<path d="M40.928 22.4395L40.072 23.1967L40.08 23.2058L40.0882 23.2146L40.928 22.4395ZM40.608 21.3835L41.7477 21.4689L40.608 21.3835ZM41.184 20.0875L42.0743 20.8041L42.0785 20.7988L41.184 20.0875ZM46.032 13.9915L46.9265 14.7028L48.4011 12.8486H46.032V13.9915ZM49.216 11.9915L48.3762 12.7666L48.3762 12.7666L49.216 11.9915ZM49.536 13.0475L48.3988 12.9338L48.3974 12.9479L48.3963 12.962L49.536 13.0475ZM48.96 14.3435L48.0697 13.6269L48.0667 13.6307L48.96 14.3435ZM44.096 20.4395L43.2027 19.7267L41.722 21.5823H44.096V20.4395ZM42.064 21.7126C41.916 21.7126 41.834 21.6919 41.797 21.6783C41.7793 21.6718 41.7713 21.6668 41.7695 21.6656C41.768 21.6646 41.768 21.6645 41.7678 21.6643L40.0882 23.2146C40.6252 23.7964 41.3534 23.9983 42.064 23.9983V21.7126ZM41.784 21.6822C41.7753 21.6724 41.7348 21.64 41.7477 21.4689L39.4683 21.298C39.4172 21.9803 39.5901 22.6519 40.072 23.1967L41.784 21.6822ZM41.7477 21.4689C41.7577 21.3353 41.8226 21.1167 42.0743 20.8041L40.2937 19.3709C39.8414 19.9329 39.5223 20.5783 39.4683 21.298L41.7477 21.4689ZM42.0785 20.7988L46.9265 14.7028L45.1375 13.2801L40.2895 19.3761L42.0785 20.7988ZM46.032 12.8486H41.84V15.1343H46.032V12.8486ZM41.84 12.8486C41.7174 12.8486 41.6555 12.8335 41.636 12.8272C41.6215 12.8225 41.648 12.8289 41.6843 12.8639C41.701 12.8799 41.7142 12.8968 41.7235 12.9117C41.7325 12.9262 41.7354 12.9348 41.7349 12.9333C41.7331 12.9283 41.7189 12.8824 41.7189 12.7755H39.4331C39.4331 13.3685 39.5896 14.0204 40.0997 14.5111C40.6015 14.9938 41.2533 15.1343 41.84 15.1343V12.8486ZM41.7189 12.7755C41.7189 12.6726 41.7328 12.6306 41.7333 12.6291C41.7333 12.6291 41.7324 12.6316 41.7302 12.6362C41.728 12.6408 41.7246 12.6472 41.7198 12.6548C41.7098 12.6707 41.696 12.6881 41.6789 12.7043C41.6419 12.7394 41.6157 12.7452 41.6318 12.7401C41.6528 12.7334 41.7162 12.7183 41.84 12.7183V10.4326C41.2569 10.4326 40.6072 10.57 40.1051 11.0466C39.5919 11.5339 39.4331 12.1837 39.4331 12.7755H41.7189ZM41.84 12.7183H48.08V10.4326H41.84V12.7183ZM48.08 12.7183C48.228 12.7183 48.31 12.7391 48.347 12.7526C48.3647 12.7591 48.3727 12.7641 48.3745 12.7653C48.376 12.7663 48.376 12.7664 48.3762 12.7666L50.0558 11.2163C49.5188 10.6346 48.7906 10.4326 48.08 10.4326V12.7183ZM48.3762 12.7666C48.3903 12.7819 48.3923 12.7885 48.3943 12.7949C48.3973 12.805 48.4076 12.8457 48.3988 12.9338L50.6732 13.1612C50.7435 12.4585 50.5649 11.7678 50.0558 11.2163L48.3762 12.7666ZM48.3963 12.962C48.3863 13.0957 48.3214 13.3142 48.0697 13.6269L49.8503 15.0601C50.3026 14.4981 50.6217 13.8526 50.6757 13.1329L48.3963 12.962ZM48.0667 13.6307L43.2027 19.7267L44.9893 21.1523L49.8533 15.0563L48.0667 13.6307ZM44.096 21.5823H48.56V19.2966H44.096V21.5823ZM48.56 21.5823C48.6838 21.5823 48.7472 21.5974 48.7682 21.6041C48.7843 21.6092 48.7581 21.6034 48.7211 21.5683C48.704 21.5521 48.6902 21.5347 48.6802 21.5188C48.6754 21.5112 48.672 21.5048 48.6698 21.5002C48.6676 21.4956 48.6667 21.4931 48.6667 21.4931C48.6672 21.4946 48.6811 21.5366 48.6811 21.6395H50.9669C50.9669 21.0477 50.8081 20.3979 50.2949 19.9106C49.7928 19.434 49.1431 19.2966 48.56 19.2966V21.5823ZM48.6811 21.6395C48.6811 21.7464 48.6669 21.7923 48.6651 21.7973C48.6646 21.7988 48.6675 21.7902 48.6765 21.7757C48.6858 21.7608 48.699 21.7439 48.7157 21.7279C48.752 21.6929 48.7785 21.6865 48.764 21.6912C48.7445 21.6975 48.6826 21.7126 48.56 21.7126V23.9983C49.1467 23.9983 49.7985 23.8578 50.3003 23.3751C50.8104 22.8844 50.9669 22.2325 50.9669 21.6395H48.6811ZM48.56 21.7126H42.064V23.9983H48.56V21.7126Z" fill="white"/>
<path d="M55.7779 16C55.2765 16 54.8979 15.8613 54.6419 15.584C54.3965 15.3067 54.2899 14.9547 54.3219 14.528C54.3539 14.1013 54.5459 13.6693 54.8979 13.232L59.7459 7.136H55.5539C54.7112 7.136 54.2899 6.73067 54.2899 5.92C54.2899 5.12 54.7112 4.72 55.5539 4.72H61.7939C62.2952 4.72 62.6739 4.85867 62.9299 5.136C63.1859 5.41333 63.2925 5.76533 63.2499 6.192C63.2179 6.61867 63.0259 7.05067 62.6739 7.488L57.8099 13.584H62.2739C63.1165 13.584 63.5379 13.984 63.5379 14.784C63.5379 15.5947 63.1165 16 62.2739 16H55.7779Z" fill="#6B98BF"/>
<path d="M54.6419 15.584L53.7859 16.3412L53.7939 16.3503L53.8021 16.3592L54.6419 15.584ZM54.3219 14.528L55.4615 14.6135L54.3219 14.528ZM54.8979 13.232L55.7882 13.9486L55.7923 13.9434L54.8979 13.232ZM59.7459 7.136L60.6403 7.84736L62.115 5.99314H59.7459V7.136ZM62.9299 5.136L62.0901 5.91118L62.0901 5.91118L62.9299 5.136ZM63.2499 6.192L62.1127 6.07828L62.1113 6.09239L62.1102 6.10653L63.2499 6.192ZM62.6739 7.488L61.7836 6.77141L61.7805 6.77521L62.6739 7.488ZM57.8099 13.584L56.9165 12.8712L55.4359 14.7269H57.8099V13.584ZM55.7779 14.8571C55.6299 14.8571 55.5479 14.8364 55.5109 14.8228C55.4931 14.8163 55.4852 14.8114 55.4834 14.8102C55.4818 14.8092 55.4819 14.8091 55.4816 14.8088L53.8021 16.3592C54.3391 16.9409 55.0673 17.1429 55.7779 17.1429V14.8571ZM55.4979 14.8268C55.4891 14.8169 55.4487 14.7845 55.4615 14.6135L53.1822 14.4425C53.131 15.1248 53.3039 15.7964 53.7859 16.3412L55.4979 14.8268ZM55.4615 14.6135C55.4715 14.4798 55.5365 14.2613 55.7882 13.9486L54.0076 12.5154C53.5553 13.0774 53.2362 13.7229 53.1822 14.4425L55.4615 14.6135ZM55.7923 13.9434L60.6403 7.84736L58.8514 6.42464L54.0034 12.5206L55.7923 13.9434ZM59.7459 5.99314H55.5539V8.27886H59.7459V5.99314ZM55.5539 5.99314C55.4313 5.99314 55.3694 5.97799 55.3498 5.97173C55.3353 5.96707 55.3618 5.97342 55.3982 6.00839C55.4149 6.02446 55.428 6.04128 55.4373 6.0562C55.4464 6.07075 55.4492 6.07928 55.4487 6.07783C55.447 6.07281 55.4327 6.02693 55.4327 5.92H53.147C53.147 6.513 53.3035 7.16491 53.8135 7.65561C54.3154 8.13838 54.9672 8.27886 55.5539 8.27886V5.99314ZM55.4327 5.92C55.4327 5.81712 55.4466 5.77517 55.4472 5.77361C55.4472 5.77359 55.4463 5.77612 55.4441 5.78072C55.4419 5.78535 55.4385 5.79171 55.4337 5.79932C55.4236 5.81525 55.4098 5.83259 55.3927 5.84883C55.3557 5.88395 55.3295 5.88971 55.3457 5.8846C55.3667 5.87796 55.4301 5.86286 55.5539 5.86286V3.57714C54.9708 3.57714 54.3211 3.71449 53.819 4.19117C53.3058 4.67841 53.147 5.32824 53.147 5.92H55.4327ZM55.5539 5.86286H61.7939V3.57714H55.5539V5.86286ZM61.7939 5.86286C61.9418 5.86286 62.0239 5.88361 62.0609 5.89716C62.0786 5.90365 62.0865 5.90864 62.0884 5.90983C62.0899 5.91084 62.0899 5.91093 62.0901 5.91118L63.7696 4.36082C63.2327 3.7791 62.5044 3.57714 61.7939 3.57714V5.86286ZM62.0901 5.91118C62.1042 5.92643 62.1062 5.93303 62.1081 5.93944C62.1112 5.94952 62.1215 5.99022 62.1127 6.07828L64.3871 6.30572C64.4573 5.60298 64.2787 4.91234 63.7696 4.36082L62.0901 5.91118ZM62.1102 6.10653C62.1002 6.24021 62.0353 6.45872 61.7836 6.77142L63.5642 8.20458C64.0165 7.64261 64.3356 6.99712 64.3895 6.27747L62.1102 6.10653ZM61.7805 6.77521L56.9165 12.8712L58.7032 14.2968L63.5672 8.20079L61.7805 6.77521ZM57.8099 14.7269H62.2739V12.4411H57.8099V14.7269ZM62.2739 14.7269C62.3977 14.7269 62.4611 14.742 62.4821 14.7486C62.4982 14.7537 62.472 14.7479 62.435 14.7128C62.4179 14.6966 62.4041 14.6792 62.394 14.6633C62.3892 14.6557 62.3858 14.6493 62.3836 14.6447C62.3814 14.6401 62.3805 14.6376 62.3805 14.6376C62.3811 14.6392 62.395 14.6811 62.395 14.784H64.6807C64.6807 14.1922 64.522 13.5424 64.0087 13.0552C63.5066 12.5785 62.857 12.4411 62.2739 12.4411V14.7269ZM62.395 14.784C62.395 14.8909 62.3807 14.9368 62.379 14.9418C62.3785 14.9433 62.3813 14.9348 62.3904 14.9202C62.3997 14.9053 62.4128 14.8885 62.4295 14.8724C62.4659 14.8374 62.4924 14.8311 62.4779 14.8357C62.4583 14.842 62.3964 14.8571 62.2739 14.8571V17.1429C62.8605 17.1429 63.5124 17.0024 64.0142 16.5196C64.5243 16.0289 64.6807 15.377 64.6807 14.784H62.395ZM62.2739 14.8571H55.7779V17.1429H62.2739V14.8571Z" fill="white"/>
<path d="M55.7779 35.4297C55.2765 35.4297 54.8979 35.291 54.6419 35.0137C54.3965 34.7364 54.2899 34.3844 54.3219 33.9577C54.3539 33.531 54.5459 33.099 54.8979 32.6617L59.7459 26.5657H55.5539C54.7112 26.5657 54.2899 26.1604 54.2899 25.3497C54.2899 24.5497 54.7112 24.1497 55.5539 24.1497H61.7939C62.2952 24.1497 62.6739 24.2884 62.9299 24.5657C63.1859 24.843 63.2925 25.195 63.2499 25.6217C63.2179 26.0484 63.0259 26.4804 62.6739 26.9177L57.8099 33.0137H62.2739C63.1165 33.0137 63.5379 33.4137 63.5379 34.2137C63.5379 35.0244 63.1165 35.4297 62.2739 35.4297H55.7779Z" fill="#6B98BF"/>
<path d="M54.6419 35.0137L53.7859 35.7709L53.7939 35.78L53.8021 35.7889L54.6419 35.0137ZM54.3219 33.9577L55.4615 34.0432L54.3219 33.9577ZM54.8979 32.6617L55.7882 33.3783L55.7923 33.373L54.8979 32.6617ZM59.7459 26.5657L60.6403 27.277L62.115 25.4228H59.7459V26.5657ZM62.9299 24.5657L62.0901 25.3409L62.0901 25.3409L62.9299 24.5657ZM63.2499 25.6217L62.1127 25.508L62.1113 25.5221L62.1102 25.5362L63.2499 25.6217ZM62.6739 26.9177L61.7836 26.2011L61.7805 26.2049L62.6739 26.9177ZM57.8099 33.0137L56.9165 32.3009L55.4359 34.1565H57.8099V33.0137ZM55.7779 34.2868C55.6299 34.2868 55.5479 34.2661 55.5109 34.2525C55.4931 34.246 55.4852 34.241 55.4834 34.2399C55.4818 34.2388 55.4819 34.2388 55.4816 34.2385L53.8021 35.7889C54.3391 36.3706 55.0673 36.5725 55.7779 36.5725V34.2868ZM55.4979 34.2565C55.4891 34.2466 55.4487 34.2142 55.4615 34.0432L53.1822 33.8722C53.131 34.5545 53.3039 35.2261 53.7859 35.7709L55.4979 34.2565ZM55.4615 34.0432C55.4715 33.9095 55.5365 33.691 55.7882 33.3783L54.0076 31.9451C53.5553 32.5071 53.2362 33.1526 53.1822 33.8722L55.4615 34.0432ZM55.7923 33.373L60.6403 27.277L58.8514 25.8543L54.0034 31.9503L55.7923 33.373ZM59.7459 25.4228H55.5539V27.7085H59.7459V25.4228ZM55.5539 25.4228C55.4313 25.4228 55.3694 25.4077 55.3498 25.4014C55.3353 25.3968 55.3618 25.4031 55.3982 25.4381C55.4149 25.4541 55.428 25.471 55.4373 25.4859C55.4464 25.5004 55.4492 25.509 55.4487 25.5075C55.447 25.5025 55.4327 25.4566 55.4327 25.3497H53.147C53.147 25.9427 53.3035 26.5946 53.8135 27.0853C54.3154 27.5681 54.9672 27.7085 55.5539 27.7085V25.4228ZM55.4327 25.3497C55.4327 25.2468 55.4466 25.2049 55.4472 25.2033C55.4472 25.2033 55.4463 25.2058 55.4441 25.2104C55.4419 25.215 55.4385 25.2214 55.4337 25.229C55.4236 25.2449 55.4098 25.2623 55.3927 25.2785C55.3557 25.3136 55.3295 25.3194 55.3457 25.3143C55.3667 25.3076 55.4301 25.2925 55.5539 25.2925V23.0068C54.9708 23.0068 54.3211 23.1442 53.819 23.6209C53.3058 24.1081 53.147 24.7579 53.147 25.3497H55.4327ZM55.5539 25.2925H61.7939V23.0068H55.5539V25.2925ZM61.7939 25.2925C61.9418 25.2925 62.0239 25.3133 62.0609 25.3269C62.0786 25.3333 62.0865 25.3383 62.0884 25.3395C62.0899 25.3405 62.0899 25.3406 62.0901 25.3409L63.7696 23.7905C63.2327 23.2088 62.5044 23.0068 61.7939 23.0068V25.2925ZM62.0901 25.3409C62.1042 25.3561 62.1062 25.3627 62.1081 25.3691C62.1112 25.3792 62.1215 25.4199 62.1127 25.508L64.3871 25.7354C64.4573 25.0327 64.2787 24.342 63.7696 23.7905L62.0901 25.3409ZM62.1102 25.5362C62.1002 25.6699 62.0353 25.8884 61.7836 26.2011L63.5642 27.6343C64.0165 27.0723 64.3356 26.4268 64.3895 25.7072L62.1102 25.5362ZM61.7805 26.2049L56.9165 32.3009L58.7032 33.7265L63.5672 27.6305L61.7805 26.2049ZM57.8099 34.1565H62.2739V31.8708H57.8099V34.1565ZM62.2739 34.1565C62.3977 34.1565 62.4611 34.1716 62.4821 34.1783C62.4982 34.1834 62.472 34.1776 62.435 34.1425C62.4179 34.1263 62.4041 34.1089 62.394 34.093C62.3892 34.0854 62.3858 34.079 62.3836 34.0744C62.3814 34.0698 62.3805 34.0673 62.3805 34.0673C62.3811 34.0689 62.395 34.1108 62.395 34.2137H64.6807C64.6807 33.6219 64.522 32.9721 64.0087 32.4849C63.5066 32.0082 62.857 31.8708 62.2739 31.8708V34.1565ZM62.395 34.2137C62.395 34.3206 62.3807 34.3665 62.379 34.3715C62.3785 34.373 62.3813 34.3644 62.3904 34.3499C62.3997 34.335 62.4128 34.3181 62.4295 34.3021C62.4659 34.2671 62.4924 34.2608 62.4779 34.2654C62.4583 34.2717 62.3964 34.2868 62.2739 34.2868V36.5725C62.8605 36.5725 63.5124 36.4321 64.0142 35.9493C64.5243 35.4586 64.6807 34.8067 64.6807 34.2137H62.395ZM62.2739 34.2868H55.7779V36.5725H62.2739V34.2868Z" fill="white"/>
</svg>
