<svg width="63" height="64" viewBox="0 0 63 64" fill="none" xmlns="http://www.w3.org/2000/svg">
<path d="M31.3085 63.3397C48.5989 63.3397 62.6166 49.3227 62.6166 32.0323C62.6166 14.7411 48.5989 0.724609 31.3085 0.724609C14.0174 0.724609 0 14.7411 0 32.0323C0 49.3227 14.0174 63.3397 31.3085 63.3397Z" fill="#1E88E5"/>
<path fill-rule="evenodd" clip-rule="evenodd" d="M35.4917 15.0204C35.6787 15.5469 35.9743 16.0296 36.3594 16.4341C36.7444 16.8397 37.2103 17.1597 37.727 17.3737C38.2437 17.5878 38.7995 17.6905 39.3585 17.6766C39.9175 17.6616 40.4673 17.53 40.9721 17.2892C41.7209 16.9168 42.5677 16.7894 43.393 16.9242C44.2182 17.0602 44.9802 17.4508 45.5715 18.0415C46.1628 18.6323 46.5535 19.3943 46.6885 20.2194C46.8235 21.0445 46.696 21.8911 46.324 22.6402C46.079 23.1443 45.9427 23.6954 45.924 24.2551C45.9054 24.8159 46.0047 25.3746 46.2157 25.8936C46.4265 26.4137 46.7443 26.8825 47.1484 27.272C47.5525 27.6605 48.0337 27.9602 48.5611 28.1517C49.3274 28.4343 49.9887 28.9448 50.4558 29.6147C50.9229 30.2836 51.1733 31.0809 51.1733 31.8974C51.1733 32.714 50.9229 33.5113 50.4558 34.1802C49.9887 34.8501 49.3274 35.3606 48.5611 35.6431C48.034 35.8304 47.5522 36.1258 47.1467 36.5111C46.7412 36.8953 46.4212 37.3619 46.2072 37.8777C45.9932 38.3946 45.8903 38.9501 45.9048 39.5098C45.9194 40.0684 46.0513 40.6174 46.2919 41.1226C46.6638 41.8717 46.7914 42.7182 46.6564 43.5434C46.5214 44.3685 46.1307 45.1305 45.5394 45.7212C44.9481 46.312 44.1861 46.7026 43.3609 46.8385C42.5356 46.9734 41.6888 46.846 40.94 46.4736C40.4344 46.2328 39.884 46.1022 39.3246 46.0883C38.765 46.0744 38.2088 46.1782 37.692 46.3933C37.1752 46.6084 36.7094 46.9295 36.3248 47.3362C35.9402 47.7428 35.6454 48.2255 35.4596 48.7531C35.1728 49.5151 34.6605 50.1711 33.9912 50.6335C33.3218 51.0969 32.5272 51.3451 31.7133 51.3451C30.8994 51.3451 30.1047 51.0969 29.4354 50.6335C28.7661 50.1711 28.2538 49.5151 27.9669 48.7531C27.7878 48.2137 27.4954 47.7182 27.1095 47.3008C26.7236 46.8835 26.2528 46.5528 25.7289 46.3323C25.2049 46.1119 24.6399 46.0048 24.0715 46.0198C23.5031 46.0348 22.9445 46.1718 22.4331 46.4201C21.6841 46.7925 20.8373 46.9198 20.0122 46.785C19.1869 46.6491 18.4249 46.2585 17.8336 45.6677C17.2423 45.077 16.8516 44.315 16.7166 43.4899C16.5816 42.6647 16.7091 41.8182 17.0811 41.0691C17.3158 40.5746 17.4465 40.0384 17.465 39.4916C17.4835 38.9447 17.3895 38.4 17.1887 37.8916C16.988 37.3822 16.6849 36.921 16.2981 36.5335C15.9113 36.1472 15.4491 35.8443 14.9404 35.6431C14.1741 35.3606 13.5127 34.8501 13.0457 34.1802C12.5786 33.5113 12.3281 32.714 12.3281 31.8974C12.3281 31.0809 12.5786 30.2836 13.0457 29.6147C13.5127 28.9448 14.1741 28.4343 14.9404 28.1517C15.4664 27.9634 15.9471 27.6669 16.3517 27.2816C16.7562 26.8964 17.0756 26.4308 17.2893 25.915C17.5031 25.3992 17.6064 24.8437 17.5927 24.2851C17.5789 23.7264 17.4484 23.1774 17.2096 22.6723C16.8375 21.9232 16.71 21.0766 16.845 20.2515C16.9801 19.4264 17.3708 18.6644 17.9621 18.0736C18.5534 17.4829 19.3154 17.0923 20.1406 16.9564C20.9658 16.8215 21.8126 16.9489 22.5615 17.3213C23.0663 17.5621 23.6159 17.6937 24.175 17.7087C24.734 17.7226 25.2898 17.6199 25.8065 17.4058C26.3232 17.1918 26.7891 16.8718 27.1742 16.4662C27.5592 16.0617 27.8549 15.579 28.0419 15.0525C28.333 14.3033 28.843 13.6591 29.5055 13.2042C30.1679 12.7494 30.952 12.5032 31.7559 12.5C32.5596 12.4968 33.3458 12.7355 34.0121 13.185C34.6784 13.6344 35.1941 14.2734 35.4917 15.0204Z" fill="#62ACED" stroke="white" stroke-width="3.23709" stroke-linecap="round" stroke-linejoin="round"/>
<path d="M23.4931 33.014L28.8021 38.3261L37.52 27.07" stroke="#231F20" stroke-width="4.85564" stroke-linecap="round" stroke-linejoin="round"/>
</svg>
