<svg width="22" height="22" viewBox="0 0 22 22" fill="none" xmlns="http://www.w3.org/2000/svg">
<g clip-path="url(#clip0_5401_7916)">
<path fill-rule="evenodd" clip-rule="evenodd" d="M21.368 11.2482C21.368 10.4823 21.2993 9.74597 21.1716 9.03906H11V13.2167H16.8124C16.562 14.5667 15.8011 15.7105 14.6573 16.4763V19.1862H18.1476C20.1898 17.306 21.368 14.5372 21.368 11.2482Z" fill="#4285F4"/>
<path fill-rule="evenodd" clip-rule="evenodd" d="M10.9989 21.8027C13.9149 21.8027 16.3597 20.8356 18.1466 19.1861L14.6562 16.4763C13.6891 17.1243 12.452 17.5072 10.9989 17.5072C8.18602 17.5072 5.80511 15.6074 4.95584 13.0547H1.34766V15.8529C3.12475 19.3825 6.77711 21.8027 10.9989 21.8027Z" fill="#34A853"/>
<path fill-rule="evenodd" clip-rule="evenodd" d="M4.95613 13.0584C4.74013 12.4104 4.6174 11.7182 4.6174 11.0064C4.6174 10.2946 4.74013 9.60243 4.95613 8.95443V6.15625H1.34795C0.616491 7.61425 0.199219 9.2637 0.199219 11.0064C0.199219 12.7492 0.616491 14.3986 1.34795 15.8566L4.95613 13.0584Z" fill="#FBBC05"/>
<path fill-rule="evenodd" clip-rule="evenodd" d="M10.9989 4.49858C12.5846 4.49858 14.0082 5.04349 15.1275 6.11367L18.2251 3.01603C16.3547 1.27331 13.91 0.203125 10.9989 0.203125C6.77711 0.203125 3.12475 2.62331 1.34766 6.15294L4.95584 8.95113C5.80511 6.3984 8.18602 4.49858 10.9989 4.49858Z" fill="#EA4335"/>
</g>
<defs>
<clipPath id="clip0_5401_7916">
<rect width="21.6" height="21.6" fill="white" transform="translate(0.199219 0.203125)"/>
</clipPath>
</defs>
</svg>
