<svg width="27" height="30" viewBox="0 0 27 30" fill="none" xmlns="http://www.w3.org/2000/svg">
<path d="M20.9776 11.9423C21.1112 10.9363 20.8044 9.92148 20.1357 9.15818C19.4669 8.39488 18.5014 7.95703 17.4866 7.95703C16.4717 7.95703 15.5062 8.39488 14.8374 9.15818C14.1687 9.92147 13.8619 10.9363 13.9955 11.9423H14.885C14.75 11.1737 14.9621 10.3847 15.4638 9.78705C15.9657 9.18922 16.7062 8.84414 17.4866 8.84414C18.267 8.84414 19.0075 9.18924 19.5094 9.78705C20.0111 10.3847 20.2232 11.1737 20.0882 11.9423H20.9776Z" fill="#FAFAFA"/>
<path d="M24.7496 6.56832V4.99221C24.7494 4.73438 24.6468 4.48695 24.4644 4.30458C24.2821 4.12221 24.0346 4.01962 23.7768 4.01942H19.7112C19.8662 3.90721 20.0117 3.78182 20.1453 3.64465C20.8734 2.87919 21.3176 1.79713 20.7585 1.20976C20.581 1.02856 20.3357 0.930302 20.0823 0.938362C19.5633 0.938362 18.9273 1.2809 18.3815 1.85455C17.9244 2.33505 17.6428 3.18465 17.4862 3.81976C17.3295 3.1846 17.0479 2.33461 16.5906 1.85395C16.0448 1.28052 15.4091 0.937959 14.8901 0.937959C14.6366 0.929902 14.3915 1.02816 14.214 1.20916C13.6547 1.79658 14.099 2.87864 14.827 3.64406C14.9608 3.78143 15.1064 3.90701 15.2619 4.01941H11.1954C10.9376 4.01961 10.6902 4.1222 10.5078 4.30457C10.3254 4.48694 10.2229 4.73437 10.2227 4.9922V6.56831C10.2229 6.82615 10.3254 7.07357 10.5078 7.25595C10.6902 7.43832 10.9376 7.54091 11.1954 7.5411H23.7769C24.0348 7.54091 24.2822 7.43832 24.4646 7.25595C24.6469 7.07357 24.7495 6.82615 24.7497 6.56831L24.7496 6.56832ZM19.0198 2.46158C19.5009 1.95571 19.9405 1.80674 20.0826 1.80674H20.0824C20.094 1.80635 20.1056 1.80792 20.1166 1.81126C20.1726 1.91366 20.0704 2.44582 19.5074 3.03757H19.5076C19.1816 3.34198 18.8098 3.59354 18.4059 3.78296C18.5122 3.30305 18.7217 2.85223 19.0198 2.46152L19.0198 2.46158ZM14.8411 1.82445C14.858 1.81797 14.8761 1.81522 14.894 1.816C15.0595 1.816 15.4869 1.97106 15.9529 2.46098C16.251 2.85166 16.4605 3.30251 16.5666 3.78241C16.1627 3.59297 15.7911 3.34142 15.4651 3.03722C14.9022 2.44528 14.7998 1.9131 14.8411 1.82451L14.8411 1.82445ZM11.1956 6.66069C11.1447 6.66069 11.1033 6.61922 11.1033 6.56833V4.99222C11.1033 4.94132 11.1447 4.89986 11.1956 4.89986H15.7255V6.6607L11.1956 6.66069ZM16.6059 6.66069V4.89985H18.3668V6.66069H16.6059ZM23.8697 6.56833C23.8697 6.61922 23.8282 6.66069 23.7773 6.66069H19.2475V4.89985H23.7773C23.8282 4.89985 23.8697 4.94131 23.8697 4.99221V6.56833Z" fill="#FAFAFA"/>
<path d="M1.43554 20.0126L2.24266 19.7837L8.42876 17.8457C8.52898 17.8141 8.63275 17.7944 8.73749 17.787L8.82455 17.7811V17.7813C9.07571 17.7677 9.32549 17.8265 9.54424 17.9503L16.2264 21.6637C16.2405 21.6716 16.2551 21.6787 16.27 21.6848C16.9858 21.9853 17.4946 22.723 17.381 23.2958H17.3808C17.3073 23.6653 17.0789 23.9854 16.7537 24.1753C16.4477 24.3551 16.0808 24.4001 15.7404 24.2993L11.4241 22.0418C11.2087 21.9292 10.9426 22.0125 10.83 22.2279C10.7174 22.4433 10.8007 22.7094 11.0161 22.822L15.3669 25.0977C15.3883 25.1089 15.4105 25.1184 15.4335 25.1258C15.6493 25.1968 15.8751 25.2327 16.1023 25.2327C16.7418 25.2322 17.3488 24.95 17.7614 24.461L24.3193 20.8292C24.5808 20.6818 24.8915 20.6484 25.1785 20.7369C25.4593 20.8222 25.693 21.0187 25.825 21.2808C25.9494 21.5516 25.9654 21.8598 25.8695 22.142C25.7738 22.4242 25.5735 22.6588 25.3102 22.7982L15.2281 28.1552C15.0655 28.2463 14.8694 28.2544 14.6998 28.1774L7.40237 23.9386L7.31354 23.89C6.85368 23.6383 6.28199 23.3242 5.66786 23.5481L2.09586 24.679H2.09605C1.86435 24.7525 1.73583 24.9998 1.80933 25.2314C1.88263 25.4631 2.12986 25.5917 2.36173 25.5182L5.95124 24.3813C6.20751 24.2877 6.53961 24.4697 6.89082 24.6623L14.2733 28.9475C14.2823 28.9526 14.2916 28.9575 14.3008 28.962H14.3006C14.7282 29.1711 15.2309 29.1589 15.648 28.9292L25.7301 23.5717H25.7302C26.194 23.3215 26.5439 22.9025 26.7076 22.4016C26.8713 21.9007 26.8361 21.3561 26.6095 20.8801C26.3697 20.4051 25.9457 20.0489 25.4365 19.8946C24.9212 19.7358 24.3635 19.7949 23.893 20.0585L18.2749 23.1698C18.3012 22.1833 17.512 21.2612 16.6339 20.8827L9.97188 17.1804C9.60674 16.9762 9.19128 16.8795 8.7735 16.9015L8.67288 16.9082C8.50053 16.9208 8.33015 16.9534 8.16526 17.0051L2.20455 18.8726L1.19558 19.1647C0.961526 19.2309 0.825528 19.4744 0.891756 19.7083C0.95818 19.9423 1.20147 20.0783 1.43556 20.0121L1.43554 20.0126Z" fill="#FAFAFA"/>
<path d="M18.8517 21.8458L19.2471 21.6268V13.7045H22.9887L22.9891 19.5546L23.4666 19.29C23.596 19.2199 23.7306 19.1598 23.8691 19.1104V13.7046C23.8689 13.4712 23.776 13.2473 23.6109 13.0823C23.446 12.9174 23.2222 12.8244 22.9887 12.8242H11.9839C11.7505 12.8244 11.5266 12.9174 11.3617 13.0823C11.1967 13.2473 11.1037 13.4712 11.1035 13.7046V16.8032L11.9839 17.2926V13.7047H15.7255V19.3721L16.606 19.8614V13.9153H18.3668V21.1076C18.559 21.3324 18.7219 21.5804 18.8518 21.8459L18.8517 21.8458Z" fill="#FAFAFA"/>
</svg>
