<svg width="20" height="20" viewBox="0 0 20 20" fill="none" xmlns="http://www.w3.org/2000/svg">
<path d="M10 4.98273L12.0417 6.20182L11.5 3.90273L13.3333 2.36455L10.925 2.16L10 0L9.05833 2.16L6.66667 2.36455L8.48333 3.90273L7.91667 6.20182L10 4.98273ZM3.33333 9.89182L5.375 11.1109L4.83333 8.81182L6.66667 7.27364L4.25833 7.06909L3.33333 4.90909L2.39167 7.06909L0 7.27364L1.81667 8.81182L1.25 11.1109L3.33333 9.89182ZM16.6667 7.43727L18.7083 8.65636L18.1667 6.35727L20 4.81909L17.5917 4.61455L16.6667 2.45455L15.725 4.61455L13.3333 4.81909L15.15 6.35727L14.5833 8.65636L16.6667 7.43727ZM12.5 19C12.5 19.5523 12.0523 20 11.5 20H8.5C7.94772 20 7.5 19.5523 7.5 19V8.36364C7.5 7.81135 7.94772 7.36364 8.5 7.36364H11.5C12.0523 7.36364 12.5 7.81135 12.5 8.36364V19ZM5.83333 19C5.83333 19.5523 5.38562 20 4.83333 20H1.83333C1.28105 20 0.833333 19.5523 0.833333 19V14.0909C0.833333 13.5386 1.28105 13.0909 1.83333 13.0909H4.83333C5.38562 13.0909 5.83333 13.5386 5.83333 14.0909V19ZM19.1667 19C19.1667 19.5523 18.719 20 18.1667 20H15.1667C14.6144 20 14.1667 19.5523 14.1667 19V10.8182C14.1667 10.2659 14.6144 9.81818 15.1667 9.81818H18.1667C18.719 9.81818 19.1667 10.2659 19.1667 10.8182V19Z" fill="#2457C5"/>
</svg>
