<svg width="26" height="19" viewBox="0 0 26 19" fill="none" xmlns="http://www.w3.org/2000/svg">
<path d="M2.52 0.458438H22.68C23.3324 0.458438 23.9581 0.717615 24.4195 1.17895C24.8808 1.64029 25.14 2.26601 25.14 2.91844V16.3584C25.14 17.0109 24.8808 17.6366 24.4195 18.0979C23.9581 18.5593 23.3324 18.8184 22.68 18.8184H2.52C1.86757 18.8184 1.24186 18.5593 0.780517 18.0979C0.319178 17.6366 0.06 17.0109 0.06 16.3584V2.91844C0.06 2.26601 0.319178 1.64029 0.780517 1.17895C1.24186 0.717615 1.86757 0.458438 2.52 0.458438ZM23.3164 16.9948C23.4852 16.8261 23.58 16.5971 23.58 16.3584V2.91844C23.58 2.67974 23.4852 2.45082 23.3164 2.28204C23.1476 2.11326 22.9187 2.01844 22.68 2.01844H2.52C2.28131 2.01844 2.05239 2.11326 1.8836 2.28204C1.71482 2.45082 1.62 2.67974 1.62 2.91844V16.3584C1.62 16.5971 1.71482 16.8261 1.8836 16.9948C2.05239 17.1636 2.28131 17.2584 2.52 17.2584H22.68C22.9187 17.2584 23.1476 17.1636 23.3164 16.9948Z" fill="#313135" stroke="#FCFCFC" stroke-width="0.12"/>
<path d="M21.5541 4.04854L21.5545 4.04888C21.6276 4.12139 21.6856 4.20766 21.7252 4.30271C21.7648 4.39776 21.7852 4.49971 21.7852 4.60268C21.7852 4.70565 21.7648 4.8076 21.7252 4.90265C21.6856 4.9977 21.6276 5.08397 21.5545 5.15648L21.5544 5.15662L17.1024 9.60022L17.0598 9.64268L17.1024 9.68515L21.5544 14.1288L21.5545 14.1289C21.6276 14.2014 21.6856 14.2877 21.7252 14.3827C21.7648 14.4778 21.7852 14.5797 21.7852 14.6827C21.7852 14.7857 21.7648 14.8876 21.7252 14.9827C21.6856 15.0777 21.6276 15.164 21.5545 15.2365L21.5541 15.2368C21.4816 15.3099 21.3954 15.368 21.3003 15.4076C21.2053 15.4472 21.1033 15.4676 21.0003 15.4676C20.8974 15.4676 20.7954 15.4472 20.7004 15.4076C20.6053 15.368 20.5191 15.3099 20.4465 15.2368L20.4464 15.2367L16.0028 10.7847L15.9603 10.7421L15.9178 10.7847L13.1542 13.5567L13.1541 13.5568C13.0816 13.6299 12.9954 13.688 12.9003 13.7276C12.8053 13.7672 12.7033 13.7876 12.6003 13.7876C12.4974 13.7876 12.3954 13.7672 12.3004 13.7276C12.2053 13.688 12.1191 13.6299 12.0465 13.5568L12.0464 13.5567L9.28283 10.7847L9.24036 10.7421L9.19787 10.7847L4.75427 15.2367L4.75414 15.2368C4.68163 15.3099 4.59536 15.368 4.50031 15.4076C4.40526 15.4472 4.30331 15.4676 4.20034 15.4676C4.09737 15.4676 3.99542 15.4472 3.90037 15.4076C3.80532 15.368 3.71905 15.3099 3.64654 15.2368L3.64619 15.2365C3.57308 15.164 3.51506 15.0777 3.47546 14.9827C3.43586 14.8876 3.41547 14.7857 3.41547 14.6827C3.41547 14.5797 3.43586 14.4778 3.47546 14.3827C3.51506 14.2877 3.57308 14.2014 3.64619 14.1289L3.64633 14.1287L8.09833 9.68515L8.14087 9.64268L8.09833 9.60022L3.64637 5.15666C3.64636 5.15665 3.64635 5.15664 3.64634 5.15663C3.5736 5.08389 3.51591 4.99753 3.47654 4.90249C3.43717 4.80744 3.4169 4.70557 3.4169 4.60268C3.4169 4.3949 3.49944 4.19563 3.64637 4.04871C3.79329 3.90179 3.99256 3.81925 4.20034 3.81925C4.40812 3.81925 4.60739 3.90179 4.75431 4.04871L12.5579 11.8607L12.6003 11.9032L12.6428 11.8607L20.4464 4.04869L20.4465 4.04854C20.5191 3.97543 20.6053 3.9174 20.7004 3.8778C20.7954 3.8382 20.8974 3.81781 21.0003 3.81781C21.1033 3.81781 21.2053 3.8382 21.3003 3.8778C21.3954 3.9174 21.4816 3.97543 21.5541 4.04854Z" fill="#313135" stroke="#FCFCFC" stroke-width="0.12"/>
</svg>
