<svg width="230" height="162" viewBox="0 0 230 162" fill="none" xmlns="http://www.w3.org/2000/svg">
<g filter="url(#filter0_ddd_107_361)">
<rect x="5" y="3" width="220.11" height="152.478" rx="11.1917" fill="white"/>
<path d="M174.794 53.1984C174.376 52.7955 173.999 52.3217 173.663 51.7771C173.335 51.2399 173.07 50.643 172.869 49.9864C172.675 49.3224 172.578 48.6098 172.578 47.8488C172.578 47.0877 172.675 46.3789 172.869 45.7223C173.07 45.0583 173.335 44.4577 173.663 43.9205C173.999 43.3758 174.376 42.902 174.794 42.4991H175.98V42.611C175.309 43.3049 174.768 44.0995 174.357 44.9949C173.954 45.8902 173.753 46.8415 173.753 47.8488C173.753 48.856 173.954 49.8073 174.357 50.7027C174.768 51.598 175.312 52.3926 175.991 53.0865V53.1984H174.794ZM179.904 51.7099C179.195 51.7099 178.583 51.542 178.069 51.2063C177.561 50.8631 177.17 50.3893 176.893 49.7849C176.625 49.1731 176.491 48.4643 176.491 47.6585C176.491 46.8527 176.625 46.1476 176.893 45.5433C177.17 44.9315 177.561 44.4577 178.069 44.1219C178.583 43.7787 179.195 43.6071 179.904 43.6071C180.613 43.6071 181.221 43.7787 181.728 44.1219C182.236 44.4577 182.624 44.9315 182.892 45.5433C183.168 46.1476 183.306 46.8527 183.306 47.6585C183.306 48.4643 183.168 49.1731 182.892 49.7849C182.624 50.3893 182.236 50.8631 181.728 51.2063C181.221 51.542 180.613 51.7099 179.904 51.7099ZM179.904 50.6467C180.329 50.6467 180.706 50.5273 181.034 50.2886C181.37 50.0498 181.631 49.7066 181.818 49.2589C182.004 48.8113 182.098 48.2778 182.098 47.6585C182.098 47.0392 182.004 46.5058 181.818 46.0581C181.631 45.6104 181.37 45.2672 181.034 45.0285C180.706 44.7897 180.329 44.6703 179.904 44.6703C179.471 44.6703 179.091 44.7897 178.762 45.0285C178.434 45.2672 178.177 45.6104 177.99 46.0581C177.804 46.5058 177.71 47.0392 177.71 47.6585C177.71 48.2778 177.804 48.8113 177.99 49.2589C178.177 49.7066 178.434 50.0498 178.762 50.2886C179.091 50.5273 179.471 50.6467 179.904 50.6467ZM183.821 53.1984V53.0865C184.493 52.3926 185.034 51.598 185.444 50.7027C185.854 49.8073 186.06 48.856 186.06 47.8488C186.06 46.8415 185.854 45.8902 185.444 44.9949C185.041 44.0995 184.504 43.3049 183.832 42.611V42.4991H185.019C185.429 42.902 185.802 43.3758 186.138 43.9205C186.474 44.4577 186.739 45.0583 186.933 45.7223C187.134 46.3789 187.235 47.0877 187.235 47.8488C187.235 48.6098 187.134 49.3224 186.933 49.9864C186.739 50.643 186.474 51.2399 186.138 51.7771C185.802 52.3217 185.429 52.7955 185.019 53.1984H183.821Z" fill="#263238"/>
<path d="M139.191 53.2483C137.774 53.2483 136.55 52.9125 135.52 52.241C134.506 51.5546 133.722 50.607 133.17 49.3983C132.633 48.1747 132.364 46.7571 132.364 45.1455C132.364 43.5339 132.633 42.1237 133.17 40.915C133.722 39.6914 134.506 38.7438 135.52 38.0723C136.55 37.3859 137.774 37.0426 139.191 37.0426C140.609 37.0426 141.825 37.3859 142.84 38.0723C143.855 38.7438 144.63 39.6914 145.168 40.915C145.72 42.1237 145.996 43.5339 145.996 45.1455C145.996 46.7571 145.72 48.1747 145.168 49.3983C144.63 50.607 143.855 51.5546 142.84 52.241C141.825 52.9125 140.609 53.2483 139.191 53.2483ZM139.191 51.1218C140.042 51.1218 140.795 50.8831 141.452 50.4056C142.124 49.9281 142.646 49.2416 143.019 48.3463C143.392 47.451 143.578 46.384 143.578 45.1455C143.578 43.9069 143.392 42.84 143.019 41.9446C142.646 41.0493 142.124 40.3629 141.452 39.8853C140.795 39.4078 140.042 39.1691 139.191 39.1691C138.326 39.1691 137.565 39.4078 136.908 39.8853C136.252 40.3629 135.737 41.0493 135.364 41.9446C134.991 42.84 134.804 43.9069 134.804 45.1455C134.804 46.384 134.991 47.451 135.364 48.3463C135.737 49.2416 136.252 49.9281 136.908 50.4056C137.565 50.8831 138.326 51.1218 139.191 51.1218ZM146.737 55.2852L152.333 35.722H154.661L149.042 55.2852H146.737ZM162.668 53.2483C161.25 53.2483 160.026 52.9125 158.997 52.241C157.982 51.5546 157.199 50.607 156.647 49.3983C156.109 48.1747 155.841 46.7571 155.841 45.1455C155.841 43.5339 156.109 42.1237 156.647 40.915C157.199 39.6914 157.982 38.7438 158.997 38.0723C160.026 37.3859 161.25 37.0426 162.668 37.0426C164.085 37.0426 165.302 37.3859 166.316 38.0723C167.331 38.7438 168.107 39.6914 168.644 40.915C169.196 42.1237 169.472 43.5339 169.472 45.1455C169.472 46.7571 169.196 48.1747 168.644 49.3983C168.107 50.607 167.331 51.5546 166.316 52.241C165.302 52.9125 164.085 53.2483 162.668 53.2483ZM162.668 51.1218C163.518 51.1218 164.272 50.8831 164.928 50.4056C165.6 49.9281 166.122 49.2416 166.495 48.3463C166.868 47.451 167.055 46.384 167.055 45.1455C167.055 43.9069 166.868 42.84 166.495 41.9446C166.122 41.0493 165.6 40.3629 164.928 39.8853C164.272 39.4078 163.518 39.1691 162.668 39.1691C161.802 39.1691 161.041 39.4078 160.385 39.8853C159.728 40.3629 159.213 41.0493 158.84 41.9446C158.467 42.84 158.281 43.9069 158.281 45.1455C158.281 46.384 158.467 47.451 158.84 48.3463C159.213 49.2416 159.728 49.9281 160.385 50.4056C161.041 50.8831 161.802 51.1218 162.668 51.1218Z" fill="#263238"/>
<path d="M43.2949 132.989C42.2503 132.989 41.3027 132.803 40.4522 132.43C39.6165 132.042 38.945 131.504 38.4377 130.818C37.9452 130.132 37.699 129.326 37.699 128.401C37.699 127.46 37.9601 126.617 38.4824 125.871C39.0196 125.125 39.7284 124.618 40.6088 124.349C39.818 124.036 39.2061 123.581 38.7734 122.984C38.3407 122.372 38.1243 121.7 38.1243 120.969C38.1243 120.208 38.3257 119.514 38.7286 118.888C39.1315 118.246 39.7135 117.739 40.4745 117.366C41.2505 116.978 42.1906 116.784 43.2949 116.784C44.3991 116.784 45.3318 116.978 46.0928 117.366C46.8688 117.739 47.4582 118.246 47.8611 118.888C48.264 119.514 48.4654 120.208 48.4654 120.969C48.4654 121.686 48.2416 122.357 47.7939 122.984C47.3612 123.596 46.7494 124.051 45.9585 124.349C46.8389 124.633 47.5403 125.148 48.0625 125.894C48.5997 126.625 48.8683 127.46 48.8683 128.401C48.8683 129.326 48.6221 130.132 48.1297 130.818C47.6373 131.504 46.9658 132.042 46.1152 132.43C45.2795 132.803 44.3394 132.989 43.2949 132.989ZM43.2949 123.588C44.1604 123.588 44.8393 123.364 45.3318 122.917C45.8391 122.469 46.0928 121.894 46.0928 121.193C46.0928 120.402 45.8466 119.798 45.3541 119.38C44.8617 118.962 44.1753 118.753 43.2949 118.753C42.4144 118.753 41.728 118.962 41.2356 119.38C40.7431 119.798 40.4969 120.402 40.4969 121.193C40.4969 121.894 40.7431 122.469 41.2356 122.917C41.728 123.364 42.4144 123.588 43.2949 123.588ZM43.2949 130.975C44.3693 130.975 45.1751 130.721 45.7123 130.214C46.2495 129.691 46.5181 129.027 46.5181 128.222C46.5181 127.326 46.2271 126.64 45.6451 126.162C45.0781 125.67 44.2947 125.424 43.2949 125.424C42.2951 125.424 41.5042 125.67 40.9222 126.162C40.3402 126.64 40.0493 127.326 40.0493 128.222C40.0493 129.027 40.3179 129.691 40.8551 130.214C41.4072 130.721 42.2205 130.975 43.2949 130.975ZM56.4955 132.989C55.4659 132.989 54.5855 132.788 53.8543 132.385C53.1231 131.982 52.5486 131.445 52.1307 130.773C51.7278 130.102 51.4816 129.371 51.3921 128.58H53.608C53.7423 129.356 54.0632 129.952 54.5705 130.37C55.0779 130.788 55.727 130.997 56.5179 130.997C57.6072 130.997 58.5026 130.49 59.2039 129.475C59.9202 128.445 60.3007 126.871 60.3455 124.752C59.9873 125.409 59.4277 125.968 58.6667 126.431C57.9206 126.893 57.0551 127.125 56.0702 127.125C55.1898 127.125 54.3616 126.916 53.5857 126.498C52.8097 126.08 52.183 125.498 51.7054 124.752C51.2279 123.991 50.9892 123.096 50.9892 122.066C50.9892 121.156 51.213 120.298 51.6607 119.492C52.1084 118.686 52.7351 118.037 53.5409 117.545C54.3616 117.037 55.3316 116.784 56.4507 116.784C57.5998 116.784 58.5697 117 59.3606 117.433C60.1515 117.865 60.7857 118.44 61.2632 119.156C61.7407 119.872 62.0839 120.678 62.2928 121.574C62.5167 122.469 62.6286 123.387 62.6286 124.327C62.6286 126.058 62.3824 127.572 61.8899 128.871C61.4124 130.169 60.7185 131.184 59.8083 131.915C58.898 132.631 57.7938 132.989 56.4955 132.989ZM56.6074 125.088C57.2342 125.088 57.7938 124.946 58.2862 124.663C58.7786 124.379 59.1666 124.006 59.4501 123.543C59.7486 123.066 59.8978 122.544 59.8978 121.977C59.8978 121.365 59.7486 120.827 59.4501 120.365C59.1666 119.887 58.7712 119.514 58.2638 119.246C57.7714 118.977 57.2118 118.843 56.585 118.843C55.9583 118.843 55.3987 118.977 54.9063 119.246C54.4138 119.514 54.0184 119.887 53.72 120.365C53.4364 120.827 53.2947 121.357 53.2947 121.954C53.2947 122.909 53.608 123.67 54.2348 124.237C54.8615 124.804 55.6524 125.088 56.6074 125.088ZM63.256 135.026L68.8519 115.463H71.1798L65.5615 135.026H63.256ZM77.5617 132.989C76.547 132.989 75.6218 132.81 74.7861 132.452C73.9654 132.079 73.3088 131.519 72.8164 130.773C72.3239 130.027 72.0628 129.094 72.033 127.975H74.3832C74.4131 128.811 74.6966 129.52 75.2338 130.102C75.7859 130.669 76.5619 130.952 77.5617 130.952C78.5167 130.952 79.2479 130.691 79.7553 130.169C80.2626 129.632 80.5163 128.968 80.5163 128.177C80.5163 127.222 80.1731 126.513 79.4867 126.05C78.8152 125.588 77.987 125.356 77.0021 125.356H75.8381V123.387H77.0245C77.9049 123.387 78.6137 123.178 79.1509 122.76C79.703 122.342 79.9791 121.753 79.9791 120.992C79.9791 120.35 79.7627 119.828 79.33 119.425C78.9121 119.022 78.3153 118.82 77.5393 118.82C76.7335 118.82 76.0993 119.059 75.6367 119.537C75.1741 119.999 74.9204 120.581 74.8757 121.283H72.5254C72.5552 120.372 72.7791 119.581 73.1969 118.91C73.6296 118.238 74.2191 117.716 74.9652 117.343C75.7113 116.97 76.5693 116.784 77.5393 116.784C78.5839 116.784 79.4568 116.97 80.1582 117.343C80.8744 117.701 81.4116 118.194 81.7698 118.82C82.1428 119.432 82.3294 120.104 82.3294 120.835C82.3294 121.671 82.0981 122.402 81.6355 123.029C81.1729 123.655 80.5536 124.073 79.7776 124.282C80.673 124.476 81.4116 124.916 81.9936 125.603C82.5756 126.274 82.8666 127.147 82.8666 128.222C82.8666 129.087 82.6651 129.885 82.2622 130.617C81.8593 131.333 81.2624 131.907 80.4715 132.34C79.6806 132.773 78.7107 132.989 77.5617 132.989Z" fill="#263238"/>
<path d="M88.8329 132.939C88.4151 132.536 88.0383 132.063 87.7025 131.518C87.3742 130.981 87.1094 130.384 86.9079 129.727C86.7139 129.063 86.6169 128.351 86.6169 127.59C86.6169 126.829 86.7139 126.12 86.9079 125.463C87.1094 124.799 87.3742 124.199 87.7025 123.661C88.0383 123.117 88.4151 122.643 88.8329 122.24H90.0192V122.352C89.3477 123.046 88.8068 123.84 88.3964 124.736C87.9935 125.631 87.7921 126.582 87.7921 127.59C87.7921 128.597 87.9935 129.548 88.3964 130.444C88.8068 131.339 89.3514 132.134 90.0304 132.827V132.939H88.8329ZM92.0197 131.317V124.825L90.755 125.116V124.243L92.4897 123.482H93.2507V131.317H92.0197ZM94.6857 131.317V130.466C95.1931 130.063 95.6781 129.656 96.1407 129.246C96.6033 128.836 97.0136 128.433 97.3718 128.037C97.7374 127.634 98.0246 127.243 98.2335 126.862C98.4424 126.474 98.5469 126.101 98.5469 125.743C98.5469 125.504 98.5059 125.28 98.4238 125.072C98.3417 124.855 98.2074 124.684 98.0209 124.557C97.8343 124.422 97.5844 124.355 97.271 124.355C96.801 124.355 96.4466 124.504 96.2078 124.803C95.9765 125.101 95.8646 125.46 95.8721 125.877H94.7193C94.7268 125.325 94.8424 124.863 95.0663 124.49C95.2976 124.117 95.6035 123.833 95.984 123.639C96.372 123.445 96.8084 123.348 97.2934 123.348C98.0321 123.348 98.6215 123.557 99.0617 123.975C99.5094 124.385 99.7332 124.96 99.7332 125.698C99.7332 126.138 99.625 126.575 99.4087 127.008C99.1997 127.44 98.9237 127.858 98.5805 128.261C98.2447 128.657 97.8828 129.03 97.4949 129.38C97.1069 129.731 96.7376 130.048 96.3869 130.332H99.9682V131.317H94.6857ZM101.672 131.384C101.449 131.384 101.262 131.313 101.113 131.171C100.971 131.022 100.9 130.846 100.9 130.645C100.9 130.436 100.971 130.261 101.113 130.119C101.262 129.97 101.449 129.895 101.672 129.895C101.896 129.895 102.079 129.97 102.221 130.119C102.363 130.261 102.433 130.436 102.433 130.645C102.433 130.846 102.363 131.022 102.221 131.171C102.079 131.313 101.896 131.384 101.672 131.384ZM107.244 131.317V129.75H103.315V128.81L107.053 123.482H108.419V128.72H109.515V129.75H108.419V131.317H107.244ZM104.602 128.72H107.311V124.792L104.602 128.72ZM110.243 132.939V132.827C110.915 132.134 111.456 131.339 111.866 130.444C112.277 129.548 112.482 128.597 112.482 127.59C112.482 126.582 112.277 125.631 111.866 124.736C111.463 123.84 110.926 123.046 110.255 122.352V122.24H111.441C111.851 122.643 112.224 123.117 112.56 123.661C112.896 124.199 113.161 124.799 113.355 125.463C113.556 126.12 113.657 126.829 113.657 127.59C113.657 128.351 113.556 129.063 113.355 129.727C113.161 130.384 112.896 130.981 112.56 131.518C112.224 132.063 111.851 132.536 111.441 132.939H110.243Z" fill="#263238"/>
<rect x="92.1637" y="71.5455" width="53.1607" height="23.7824" rx="5.59587" fill="white"/>
<path d="M108.56 88.3441V78.5094H110.462V88.3441H108.56ZM109.959 88.3441V86.6514H114.967V88.3441H109.959ZM116.333 88.3441V78.5094H118.236V88.3441H116.333ZM123.402 88.3441L119.527 78.5094H121.583L124.577 86.4695H123.78L126.801 78.5094H128.83L124.913 88.3441H123.402ZM130.118 88.3441V78.5094H132.021V88.3441H130.118ZM131.517 88.3441V86.6654H136.959V88.3441H131.517ZM131.517 84.1332V82.5104H136.469V84.1332H131.517ZM131.517 80.1881V78.5094H136.889V80.1881H131.517Z" fill="#FE4A49"/>
<circle cx="101.257" cy="83.4363" r="2.09845" fill="#FE4A49"/>
<rect x="92.1637" y="71.5455" width="53.1607" height="23.7824" rx="5.59587" stroke="#FE4A49" stroke-width="0.699483"/>
</g>
<defs>
<filter id="filter0_ddd_107_361" x="0.8031" y="0.202066" width="228.504" height="160.872" filterUnits="userSpaceOnUse" color-interpolation-filters="sRGB">
<feFlood flood-opacity="0" result="BackgroundImageFix"/>
<feColorMatrix in="SourceAlpha" type="matrix" values="0 0 0 0 0 0 0 0 0 0 0 0 0 0 0 0 0 0 127 0" result="hardAlpha"/>
<feOffset dy="1.39897"/>
<feGaussianBlur stdDeviation="2.09845"/>
<feColorMatrix type="matrix" values="0 0 0 0 0.0980392 0 0 0 0 0.223529 0 0 0 0 0.317647 0 0 0 0.2 0"/>
<feBlend mode="normal" in2="BackgroundImageFix" result="effect1_dropShadow_107_361"/>
<feColorMatrix in="SourceAlpha" type="matrix" values="0 0 0 0 0 0 0 0 0 0 0 0 0 0 0 0 0 0 127 0" result="hardAlpha"/>
<feOffset dy="2.79793"/>
<feGaussianBlur stdDeviation="0.699483"/>
<feColorMatrix type="matrix" values="0 0 0 0 0.0980392 0 0 0 0 0.223529 0 0 0 0 0.317647 0 0 0 0.12 0"/>
<feBlend mode="normal" in2="effect1_dropShadow_107_361" result="effect2_dropShadow_107_361"/>
<feColorMatrix in="SourceAlpha" type="matrix" values="0 0 0 0 0 0 0 0 0 0 0 0 0 0 0 0 0 0 127 0" result="hardAlpha"/>
<feOffset dy="1.39897"/>
<feGaussianBlur stdDeviation="0.699483"/>
<feColorMatrix type="matrix" values="0 0 0 0 0.0969792 0 0 0 0 0.224398 0 0 0 0 0.316667 0 0 0 0.14 0"/>
<feBlend mode="normal" in2="effect2_dropShadow_107_361" result="effect3_dropShadow_107_361"/>
<feBlend mode="normal" in="SourceGraphic" in2="effect3_dropShadow_107_361" result="shape"/>
</filter>
</defs>
</svg>
