<svg width="231" height="174" viewBox="0 0 231 174" fill="none" xmlns="http://www.w3.org/2000/svg">
<path d="M64.8569 22.4504C63.6912 21.8228 62.2375 22.2614 61.6092 23.4293C60.9837 24.595 61.4223 26.0487 62.588 26.677C63.7559 27.3024 65.2104 26.8639 65.8358 25.6982C66.4634 24.5303 66.0249 23.0758 64.8569 22.4504Z" fill="#FE4A49"/>
<path d="M71.4283 11.0557C69.8291 10.1968 67.8344 10.7975 66.9733 12.3988C66.1152 13.9987 66.7152 15.9927 68.3165 16.8538C69.9164 17.7126 71.9104 17.1119 72.7715 15.5128C73.6303 13.9107 73.0304 11.9167 71.4283 11.0557Z" fill="#FE4A49"/>
<path d="M57.5886 17.9471C56.7189 17.481 55.636 17.806 55.1698 18.6765C54.7037 19.5441 55.0288 20.6269 55.8964 21.0953C56.7668 21.5614 57.8497 21.2363 58.3159 20.3658C58.782 19.4982 58.4562 18.4155 57.5886 17.9471Z" fill="#FE4A49"/>
<path d="M90.4254 2.66715C86.6817 0.656379 82.0144 2.06211 80.0036 5.80658C77.9936 9.55033 79.3993 14.2148 83.143 16.2277C86.8867 18.2385 91.5541 16.8328 93.5641 13.0883C95.5749 9.34457 94.1692 4.67792 90.4254 2.66715Z" fill="#FE4A49"/>
<path d="M77.8671 24.0284C75.0375 22.51 71.5127 23.5718 69.9913 26.4014C68.4729 29.2288 69.5346 32.7558 72.3642 34.2742C75.1946 35.7934 78.7187 34.7317 80.2379 31.9043C81.7585 29.0739 80.6968 25.5476 77.8671 24.0284Z" fill="#FE4A49"/>
<path d="M132.017 57.9378V57.7618H136.107C136.453 57.7807 136.793 57.7742 137.132 57.7553C138.743 57.6796 140.266 57.2644 141.694 56.5161C143.494 55.9307 145.048 54.93 146.363 53.5141C147.779 52.1993 148.779 50.6452 149.364 48.8454C150.27 47.1153 150.686 45.2529 150.61 43.2581C150.44 41.9688 150.264 40.6852 150.094 39.4009C149.402 36.9407 148.163 34.8078 146.363 32.9955C143.525 30.3906 140.033 28.7486 136.107 28.7486L110.341 28.7427C105.766 28.7987 104.161 31.7498 98.908 33.4806C87.1292 37.3501 83.1273 20.8269 96.1773 18.6306C102.602 17.5551 104.023 11.986 101.399 8.08521C99.26 4.90797 101.456 0.301797 106.137 0L138.724 0.679197C148.37 0.679197 156.462 2.63033 163 6.53116C169.531 10.432 174.477 15.5792 177.836 21.9781C181.196 28.3776 182.883 35.4746 182.883 43.2769C182.883 50.9535 181.196 57.988 177.842 64.3875C174.482 70.7864 169.537 75.9329 163.005 79.8344C159.935 81.6656 156.525 83.075 152.768 84.0312L132.017 57.9378Z" fill="#FE4A49"/>
<path d="M104.751 44.166C104.751 46.7477 102.658 48.8399 100.077 48.8399C97.4953 48.8399 95.4023 46.7477 95.4023 44.166C95.4023 41.5844 97.4953 39.4922 100.077 39.4922C102.658 39.4922 104.751 41.5844 104.751 44.166Z" fill="#1E88E5"/>
<path d="M122.9 44.166C122.9 46.7477 120.807 48.8399 118.226 48.8399C115.645 48.8399 113.552 46.7477 113.552 44.166C113.552 41.5844 115.645 39.4922 118.226 39.4922C120.807 39.4922 122.9 41.5844 122.9 44.166Z" fill="#1E88E5"/>
<path d="M140.83 44.166C140.83 46.7477 138.737 48.8399 136.156 48.8399C133.574 48.8399 131.481 46.7477 131.481 44.166C131.481 41.5844 133.574 39.4922 136.156 39.4922C138.737 39.4922 140.83 41.5844 140.83 44.166Z" fill="#1E88E5"/>
<path d="M182.88 43.2796C182.88 50.9591 181.197 57.9942 177.841 64.3923C174.483 70.7912 169.539 75.9406 163.006 79.8385C156.474 83.7394 148.382 85.6877 138.738 85.6877H114.964L74.5986 117.914L87.8566 57.7681H117.727L132.001 72.1918L132.017 57.7681H136.105C136.451 57.7681 136.792 57.7659 137.132 57.7608C179.639 57.2095 177.839 22.3444 177.839 21.9844C181.197 28.3825 182.88 35.4801 182.88 43.2796Z" fill="#1E88E5"/>
<path fill-rule="evenodd" clip-rule="evenodd" d="M122.92 150.661C123.242 149.52 123.84 148.6 124.715 147.904C125.591 147.208 126.776 146.849 128.272 146.83C129.74 146.849 130.901 147.208 131.754 147.904C132.607 148.6 133.195 149.52 133.515 150.661H122.92ZM123.139 156.281H141.38C141.772 156.271 141.972 156.071 141.981 155.68C141.915 149.912 140.64 145.746 138.158 143.181C135.675 140.616 132.38 139.359 128.272 139.408C124.091 139.468 120.766 140.739 118.298 143.223C115.83 145.705 114.567 149.04 114.509 153.225C114.568 157.434 115.843 160.775 118.333 163.247C120.822 165.72 124.171 166.985 128.381 167.042C130.657 167.03 132.701 166.74 134.512 166.175C136.323 165.61 137.848 164.681 139.087 163.386C139.194 163.245 139.239 163.102 139.223 162.955C139.207 162.808 139.143 162.679 139.031 162.567L134.827 158.087C134.726 157.977 134.599 157.923 134.444 157.923C134.363 157.921 134.279 157.937 134.192 157.971C134.104 158.003 134.006 158.061 133.898 158.142C133.428 158.515 132.77 158.85 131.925 159.147C131.079 159.446 130.081 159.603 128.928 159.619C127.379 159.603 126.134 159.293 125.194 158.688C124.252 158.084 123.568 157.281 123.139 156.281Z" fill="#1E88E5"/>
<path fill-rule="evenodd" clip-rule="evenodd" d="M38.5557 153.067C38.6153 157.281 39.8872 160.64 42.3699 163.144C44.8534 165.649 48.1877 166.932 52.3729 166.993C56.5842 166.932 59.9345 165.649 62.4238 163.144C64.9124 160.64 66.1865 157.281 66.2454 153.067C66.1865 148.88 64.9124 145.537 62.4238 143.037C59.9345 140.539 56.5842 139.257 52.3729 139.195C48.1877 139.257 44.8534 140.539 42.3699 143.037C39.8872 145.537 38.6153 148.88 38.5557 153.067ZM46.5791 153.067C46.6016 151.269 47.1303 149.85 48.1637 148.811C49.1978 147.771 50.6014 147.24 52.3729 147.218C54.1706 147.24 55.5894 147.771 56.6293 148.811C57.67 149.85 58.2001 151.269 58.2219 153.067C58.1965 154.866 57.659 156.297 56.6089 157.357C55.5588 158.419 54.1473 158.974 52.3729 159.025C50.6014 158.998 49.1978 158.449 48.1637 157.378C47.1303 156.307 46.6016 154.87 46.5791 153.067Z" fill="#1E88E5"/>
<path d="M83.8114 153.134C83.8405 151.383 84.383 149.978 85.4375 148.918C86.492 147.859 87.8809 147.314 89.6052 147.285C91.4058 147.307 92.8333 147.838 93.8893 148.877C94.9452 149.917 95.4848 151.335 95.5081 153.134C95.4812 154.908 94.935 156.32 93.8689 157.37C92.8028 158.42 91.3818 158.957 89.6052 158.982C87.8337 158.957 86.4301 158.42 85.3968 157.37C84.3619 156.32 83.834 154.908 83.8114 153.134ZM91.0589 166.951C97.6563 166.951 104.141 160.565 104.141 153.262V140.383V135.647C104.139 135.481 104.089 135.349 103.991 135.251C103.893 135.153 103.761 135.104 103.595 135.102H96.7174C96.5495 135.104 96.4084 135.153 96.2949 135.251C96.1808 135.349 96.1218 135.481 96.1175 135.647V141.325C95.3117 140.402 92.669 139.317 89.1681 139.317C85.1226 139.333 81.9047 140.597 79.5136 143.111C77.1224 145.625 75.8992 148.966 75.8418 153.134C75.8992 157.316 77.1224 160.643 79.5136 163.116C81.9047 165.588 85.1226 166.867 89.1681 166.951C90.6997 166.947 91.0589 166.951 91.0589 166.951Z" fill="#1E88E5"/>
<path d="M188.602 166.471V152.403C188.602 147.22 190.212 139.711 201.756 139.711C205.398 139.711 207.929 140.717 209.683 142.182C211.653 140.689 214.526 139.711 218.69 139.711C229.134 139.711 230.445 147.988 230.495 151.613V166.362C230.493 166.554 230.443 166.703 230.346 166.806C230.247 166.91 230.116 166.961 229.95 166.963H223.018C222.852 166.959 222.72 166.9 222.622 166.786C222.524 166.672 222.474 166.531 222.472 166.362V153.471C222.445 151.653 222.02 150.248 221.201 149.257C220.38 148.266 219.328 147.777 218.044 147.79C216.961 147.778 215.982 148.237 215.105 149.166C214.228 150.094 213.713 151.722 213.561 154.047V166.362V166.471C213.556 166.585 213.516 166.684 213.443 166.767C213.313 166.91 213.18 166.961 213.014 166.963H206.137H206.083C205.946 166.959 205.832 166.919 205.741 166.84C205.6 166.727 205.541 166.611 205.536 166.471V166.362V153.471C205.509 151.653 205.086 150.248 204.266 149.257C203.446 148.266 202.393 147.777 201.108 147.79C200.026 147.778 199.047 148.237 198.17 149.166C197.293 150.094 196.778 151.722 196.625 154.047V166.471C196.62 166.611 196.563 166.727 196.455 166.819C196.347 166.912 196.221 166.959 196.08 166.963H189.202C189.034 166.959 188.893 166.912 188.779 166.819C188.666 166.727 188.606 166.611 188.602 166.471Z" fill="#1E88E5"/>
<path fill-rule="evenodd" clip-rule="evenodd" d="M177.49 140.219C177.486 140.079 177.426 139.962 177.313 139.871C177.199 139.778 177.058 139.73 176.89 139.727H170.012C169.87 139.73 169.745 139.778 169.637 139.871C169.529 139.962 169.472 140.079 169.467 140.219V152.642C169.314 154.968 168.799 156.595 167.922 157.524C167.045 158.453 166.066 158.911 164.984 158.9C163.699 158.913 162.646 158.423 161.827 157.432C161.006 156.441 160.582 155.037 160.555 153.219V140.327C160.552 140.159 160.502 140.018 160.405 139.904C160.307 139.79 160.175 139.731 160.009 139.727H153.077C152.912 139.728 152.78 139.78 152.682 139.884C152.584 139.987 152.534 140.135 152.531 140.327V155.076C152.581 158.702 153.893 166.979 164.336 166.979C175.88 166.979 177.49 159.47 177.49 154.287V140.219Z" fill="#1E88E5"/>
<path d="M20.3295 153.122C20.2997 154.872 19.7579 156.277 18.7034 157.338C17.649 158.397 16.26 158.942 14.5357 158.97C12.7351 158.948 11.3068 158.418 10.2516 157.378C9.19572 156.339 8.65613 154.92 8.63213 153.122C8.65904 151.347 9.20664 149.936 10.272 148.886C11.3374 147.837 12.7591 147.298 14.5357 147.274C16.3072 147.298 17.71 147.837 18.7441 148.886C19.7783 149.936 20.3069 151.348 20.3295 153.122ZM13.0813 139.305C6.48463 139.305 0 145.69 0 152.994V165.872V172.919C0.00218167 173.086 0.0523554 173.217 0.149803 173.315C0.247978 173.413 0.379593 173.463 0.546127 173.465H7.4235C7.59148 173.463 7.73256 173.413 7.84601 173.315C7.95945 173.217 8.01906 173.086 8.02342 172.919V164.931C8.82845 165.854 11.4712 166.938 14.9728 166.938C19.0176 166.923 22.2363 165.659 24.6266 163.144C27.0177 160.631 28.2417 157.29 28.2984 153.122C28.2417 148.94 27.0177 145.613 24.6266 143.14C22.2363 140.668 19.0176 139.389 14.9728 139.305C13.4413 139.31 13.0813 139.305 13.0813 139.305Z" fill="#1E88E5"/>
</svg>
