<svg width="177" height="134" viewBox="0 0 177 134" fill="none" xmlns="http://www.w3.org/2000/svg">
<path d="M49.7662 18.0555C48.8724 17.5742 47.7578 17.9106 47.2761 18.8063C46.7966 19.7004 47.1328 20.8154 48.0266 21.2973C48.9221 21.777 50.0372 21.4407 50.5167 20.5466C50.9979 19.6508 50.6617 18.5352 49.7662 18.0555Z" fill="white"/>
<path d="M54.8046 9.31607C53.5785 8.6572 52.0491 9.11797 51.3889 10.3465C50.7309 11.5738 51.1909 13.1035 52.4187 13.7641C53.6454 14.423 55.1742 13.9621 55.8344 12.7353C56.4929 11.5063 56.0329 9.97661 54.8046 9.31607Z" fill="white"/>
<path d="M44.1949 14.6085C43.5276 14.2509 42.6967 14.5003 42.3391 15.1681C41.9814 15.8338 42.2308 16.6646 42.8965 17.024C43.5644 17.3816 44.3952 17.1322 44.7528 16.4643C45.1105 15.7986 44.8605 14.9679 44.1949 14.6085Z" fill="white"/>
<path d="M69.3702 2.88328C66.4998 1.34071 62.9213 2.41913 61.3796 5.29172C59.8385 8.16375 60.9162 11.7421 63.7866 13.2864C66.657 14.8289 70.2356 13.7505 71.7767 10.8779C73.3184 8.0059 72.2406 4.42586 69.3702 2.88328Z" fill="white"/>
<path d="M59.7414 19.2656C57.5718 18.1007 54.8693 18.9153 53.7028 21.0861C52.5386 23.2551 53.3527 25.9609 55.5222 27.1258C57.6923 28.2912 60.3943 27.4767 61.5591 25.3076C62.725 23.1363 61.9109 20.4311 59.7414 19.2656Z" fill="white"/>
<path d="M101.26 45.2832V45.1483H104.395C104.661 45.1628 104.921 45.1577 105.182 45.1432C106.417 45.0852 107.584 44.7667 108.679 44.1926C110.059 43.7435 111.251 42.9758 112.259 41.8896C113.345 40.8809 114.112 39.6887 114.56 38.3079C115.255 36.9807 115.573 35.552 115.515 34.0217C115.385 33.0325 115.25 32.0478 115.12 31.0626C114.589 29.1752 113.639 27.5389 112.259 26.1486C110.083 24.1503 107.406 22.8906 104.395 22.8906L84.64 22.8861C81.1328 22.929 79.9022 25.193 75.8743 26.5208C66.8432 29.4893 63.7749 16.8134 73.7806 15.1285C78.7062 14.3034 79.7963 10.0311 77.7845 7.03855C76.1441 4.60111 77.828 1.06746 81.4172 0.835938L106.402 1.35699C113.798 1.35699 120.002 2.85381 125.015 5.84635C130.022 8.83889 133.814 12.7876 136.39 17.6965C138.966 22.606 140.259 28.0505 140.259 34.0361C140.259 39.9252 138.966 45.3218 136.395 50.2312C133.819 55.1401 130.027 59.0883 125.019 62.0814C122.665 63.4862 120.05 64.5674 117.17 65.301L101.26 45.2832Z" fill="white"/>
<path d="M80.3532 34.7184C80.3532 36.6989 78.7485 38.304 76.7696 38.304C74.7902 38.304 73.1855 36.6989 73.1855 34.7184C73.1855 32.7379 74.7902 31.1328 76.7696 31.1328C78.7485 31.1328 80.3532 32.7379 80.3532 34.7184Z" fill="white"/>
<path d="M94.2692 34.7184C94.2692 36.6989 92.6645 38.304 90.6857 38.304C88.7063 38.304 87.1016 36.6989 87.1016 34.7184C87.1016 32.7379 88.7063 31.1328 90.6857 31.1328C92.6645 31.1328 94.2692 32.7379 94.2692 34.7184Z" fill="white"/>
<path d="M108.016 34.7184C108.016 36.6989 106.412 38.304 104.433 38.304C102.453 38.304 100.849 36.6989 100.849 34.7184C100.849 32.7379 102.453 31.1328 104.433 31.1328C106.412 31.1328 108.016 32.7379 108.016 34.7184Z" fill="white"/>
<path d="M140.257 34.0399C140.257 39.9312 138.967 45.3283 136.393 50.2366C133.818 55.1455 130.028 59.096 125.019 62.0863C120.011 65.0788 113.806 66.5735 106.412 66.5735H88.1842L57.2354 91.2965L67.4005 45.1548H90.3024L101.247 56.22L101.259 45.1548H104.393C104.659 45.1548 104.92 45.1531 105.181 45.1492C137.772 44.7263 136.392 17.9793 136.392 17.7031C138.967 22.6115 140.257 28.0565 140.257 34.0399Z" fill="white"/>
<path fill-rule="evenodd" clip-rule="evenodd" d="M94.2849 116.423C94.5319 115.548 94.9907 114.842 95.6615 114.308C96.3328 113.774 97.2417 113.499 98.3886 113.485C99.5144 113.499 100.404 113.774 101.058 114.308C101.712 114.842 102.163 115.548 102.409 116.423H94.2849ZM94.4527 120.734H108.439C108.739 120.727 108.892 120.574 108.899 120.274C108.849 115.849 107.871 112.653 105.968 110.685C104.065 108.717 101.538 107.753 98.3886 107.79C95.1831 107.836 92.6333 108.812 90.7415 110.717C88.8491 112.621 87.8805 115.179 87.8359 118.39C87.8817 121.619 88.8585 124.182 90.7677 126.079C92.6763 127.976 95.2444 128.947 98.4723 128.99C100.217 128.981 101.784 128.759 103.173 128.325C104.562 127.892 105.731 127.179 106.68 126.185C106.762 126.077 106.797 125.967 106.785 125.855C106.772 125.742 106.724 125.643 106.638 125.557L103.414 122.12C103.337 122.036 103.24 121.994 103.121 121.994C103.059 121.993 102.994 122.005 102.927 122.031C102.86 122.056 102.785 122.1 102.702 122.162C102.342 122.448 101.837 122.705 101.189 122.934C100.541 123.162 99.7753 123.283 98.8916 123.296C97.7039 123.283 96.7493 123.046 96.0284 122.581C95.3063 122.118 94.7817 121.502 94.4527 120.734Z" fill="white"/>
<path fill-rule="evenodd" clip-rule="evenodd" d="M29.6006 118.259C29.6463 121.491 30.6215 124.068 32.5251 125.99C34.4292 127.911 36.9857 128.896 40.1945 128.943C43.4235 128.896 45.9922 127.911 47.9008 125.99C49.8088 124.068 50.7857 121.491 50.8309 118.259C50.7857 115.047 49.8088 112.482 47.9008 110.565C45.9922 108.648 43.4235 107.665 40.1945 107.617C36.9857 107.665 34.4292 108.648 32.5251 110.565C30.6215 112.482 29.6463 115.047 29.6006 118.259ZM35.7523 118.259C35.7696 116.879 36.175 115.791 36.9673 114.994C37.7601 114.196 38.8363 113.789 40.1945 113.772C41.5729 113.789 42.6607 114.196 43.458 114.994C44.2559 115.791 44.6624 116.879 44.6791 118.259C44.6596 119.639 44.2475 120.737 43.4424 121.55C42.6372 122.365 41.555 122.791 40.1945 122.829C38.8363 122.809 37.7601 122.388 36.9673 121.566C36.175 120.744 35.7696 119.642 35.7523 118.259Z" fill="white"/>
<path d="M64.2989 118.31C64.3212 116.967 64.7372 115.889 65.5457 115.076C66.3542 114.263 67.4191 113.845 68.7411 113.823C70.1217 113.84 71.2162 114.247 72.0258 115.045C72.8354 115.842 73.2491 116.93 73.267 118.31C73.2464 119.671 72.8276 120.754 72.0102 121.56C71.1928 122.365 70.1033 122.778 68.7411 122.797C67.3829 122.778 66.3068 122.365 65.5145 121.56C64.721 120.754 64.3162 119.671 64.2989 118.31ZM69.8557 128.91C74.9141 128.91 79.886 124.011 79.886 118.408V108.529V104.895C79.8843 104.768 79.8458 104.667 79.7711 104.591C79.6959 104.516 79.5949 104.478 79.4672 104.477H74.1943C74.0655 104.478 73.9573 104.516 73.8703 104.591C73.7828 104.667 73.7376 104.768 73.7342 104.895V109.251C73.1165 108.542 71.0902 107.711 68.406 107.711C65.3042 107.722 62.837 108.693 61.0037 110.621C59.1704 112.55 58.2325 115.113 58.1885 118.31C58.2325 121.519 59.1704 124.071 61.0037 125.968C62.837 127.865 65.3042 128.845 68.406 128.91C69.5803 128.907 69.8557 128.91 69.8557 128.91Z" fill="white"/>
<path d="M144.644 128.544V117.753C144.644 113.776 145.878 108.016 154.729 108.016C157.521 108.016 159.462 108.788 160.807 109.911C162.318 108.766 164.52 108.016 167.713 108.016C175.721 108.016 176.726 114.365 176.764 117.147V128.461C176.763 128.609 176.724 128.722 176.65 128.802C176.574 128.881 176.473 128.921 176.346 128.922H171.031C170.904 128.919 170.803 128.874 170.728 128.786C170.652 128.699 170.614 128.591 170.613 128.461V118.572C170.592 117.177 170.266 116.1 169.638 115.339C169.009 114.579 168.202 114.203 167.218 114.213C166.387 114.204 165.637 114.556 164.964 115.269C164.292 115.981 163.897 117.23 163.78 119.014V128.461V128.544C163.776 128.633 163.746 128.708 163.69 128.772C163.59 128.881 163.489 128.921 163.361 128.922H158.088H158.047C157.942 128.919 157.854 128.888 157.785 128.828C157.677 128.741 157.632 128.652 157.628 128.544V128.461V118.572C157.607 117.177 157.282 116.1 156.654 115.339C156.025 114.579 155.217 114.203 154.233 114.213C153.403 114.204 152.652 114.556 151.98 115.269C151.307 115.981 150.912 117.23 150.795 119.014V128.544C150.791 128.652 150.748 128.741 150.665 128.812C150.582 128.883 150.486 128.919 150.377 128.922H145.104C144.975 128.919 144.867 128.883 144.78 128.812C144.693 128.741 144.647 128.652 144.644 128.544Z" fill="white"/>
<path fill-rule="evenodd" clip-rule="evenodd" d="M136.124 108.401C136.121 108.293 136.075 108.204 135.988 108.134C135.9 108.063 135.793 108.026 135.663 108.023H130.39C130.282 108.026 130.185 108.063 130.103 108.134C130.02 108.204 129.976 108.293 129.972 108.401V117.932C129.855 119.716 129.46 120.964 128.788 121.677C128.115 122.389 127.364 122.741 126.535 122.733C125.55 122.742 124.743 122.367 124.114 121.606C123.485 120.846 123.16 119.769 123.14 118.375V108.484C123.137 108.355 123.099 108.247 123.024 108.16C122.949 108.072 122.848 108.027 122.721 108.023H117.406C117.279 108.025 117.178 108.064 117.103 108.144C117.028 108.223 116.99 108.337 116.987 108.484V119.799C117.026 122.581 118.031 128.93 126.038 128.93C134.889 128.93 136.124 123.17 136.124 119.194V108.401Z" fill="white"/>
<path d="M15.6261 118.303C15.6032 119.646 15.1878 120.724 14.3794 121.537C13.5709 122.35 12.5059 122.768 11.1839 122.79C9.80332 122.773 8.70825 122.366 7.89921 121.568C7.08961 120.771 6.67589 119.683 6.65749 118.303C6.67812 116.942 7.09798 115.859 7.91483 115.053C8.73168 114.248 9.82172 113.835 11.1839 113.817C12.5421 113.835 13.6177 114.248 14.4106 115.053C15.2034 115.859 15.6088 116.942 15.6261 118.303ZM10.0687 107.703C5.01096 107.703 0.0390625 112.602 0.0390625 118.205V128.085V133.491C0.0407352 133.618 0.0792044 133.719 0.15392 133.795C0.229192 133.869 0.330104 133.908 0.457789 133.91H5.7308C5.85961 133.908 5.96777 133.869 6.05475 133.795C6.14174 133.719 6.18743 133.618 6.19078 133.491V127.362C6.80802 128.071 8.83426 128.903 11.519 128.903C14.6202 128.891 17.088 127.921 18.9208 125.992C20.7541 124.064 21.6925 121.5 21.736 118.303C21.6925 115.095 20.7541 112.542 18.9208 110.645C17.088 108.749 14.6202 107.768 11.519 107.703C10.3447 107.707 10.0687 107.703 10.0687 107.703Z" fill="white"/>
</svg>
