<svg width="30" height="25" viewBox="0 0 30 25" fill="none" xmlns="http://www.w3.org/2000/svg">
<path d="M30 2.89256C28.8938 3.38207 27.7114 3.71265 26.4654 3.86523C27.7368 3.10235 28.7158 1.89447 29.1736 0.457724C27.9847 1.16338 26.6688 1.67832 25.2638 1.95168C24.1386 0.750159 22.5366 0 20.7692 0C17.3681 0 14.6154 2.75906 14.6154 6.1602C14.6154 6.64336 14.6662 7.1138 14.7743 7.56516C9.65671 7.31087 5.11761 4.85696 2.08519 1.12524C1.55753 2.03433 1.25238 3.09599 1.25238 4.22123C1.25238 6.35728 2.33948 8.24539 3.99237 9.35156C2.98156 9.32613 2.02797 9.04641 1.20153 8.58233C1.20153 8.60776 1.20153 8.63319 1.20153 8.65862C1.20153 11.6465 3.32486 14.1322 6.14113 14.698C5.62619 14.8379 5.07947 14.9142 4.52003 14.9142C4.12587 14.9142 3.73808 14.876 3.363 14.7997C4.14495 17.2473 6.42085 19.0273 9.11634 19.0782C7.01208 20.7311 4.35474 21.7165 1.46853 21.7165C0.972664 21.7165 0.483153 21.6847 0 21.6275C2.72092 23.3948 5.95677 24.412 9.42785 24.412C20.7565 24.412 26.9485 15.0223 26.9485 6.87858C26.9485 6.61157 26.9422 6.34457 26.9294 6.08392C28.131 5.21297 29.1736 4.12587 30 2.89256Z" fill="#1DA1F2"/>
</svg>
