<svg width="54" height="70" viewBox="0 0 54 70" fill="none" xmlns="http://www.w3.org/2000/svg">
<path d="M47.0898 14.1953H53.4473V91.5202H47.0898V14.1953Z" fill="#F3A11E"/>
<path d="M51.4658 14.1953H53.4473V91.5202H51.4658V14.1953Z" fill="#E7842D"/>
<path d="M-3.19481e-05 14.1953H6.35742V91.5202H-3.19481e-05V14.1953Z" fill="#F3A11E"/>
<path d="M4.37652 14.1953H6.35742V91.5202H4.37652V14.1953Z" fill="#E7842D"/>
<path d="M18.7228 14.9893L25.5869 14.2617L34.9747 91.0343L28.1106 91.7619L18.7228 14.9893Z" fill="#F3A11E"/>
<path d="M23.0636 14.4611L25.2529 14.2617L34.976 90.9996L32.7867 91.199L23.0636 14.4611Z" fill="#E7842D"/>
<path d="M29.8888 16.4267L50.3129 6.75711L49.1904 4.03125L28.7663 13.7008L29.8888 16.4267Z" fill="#F1C71B"/>
<path d="M29.9462 16.4271L50.312 6.6913L49.75 5.30859L29.3842 15.0444L29.9462 16.4271Z" fill="#F3A11E"/>
<path d="M46.1536 11.2838L47.9854 10.5076L44.7217 3.45703L42.8899 4.23318L46.1536 11.2838Z" fill="#F3A11E"/>
<path d="M46.1834 11.2865L47.9845 10.4979L46.3867 6.96094L44.5857 7.7495L46.1834 11.2865Z" fill="#E7842D"/>
<path d="M43.0657 12.7906L44.9436 11.9594C45.6825 11.6324 45.9943 10.7254 45.6398 9.9336L43.7513 5.7151C43.3968 4.92335 42.5103 4.54643 41.7714 4.87348L39.8935 5.70468C39.1545 6.03173 38.8429 6.93901 39.1973 7.73076L41.0859 11.9493C41.4404 12.741 42.3268 13.1177 43.0657 12.7906Z" fill="#F1C71B"/>
<path d="M41.7377 9.14451L42.9627 8.58811C43.8591 8.18095 44.2375 7.05179 43.8074 6.06623C43.3771 5.08043 42.3013 4.61147 41.4048 5.01863L40.1798 5.57503C39.2834 5.98219 38.9054 7.11147 39.3356 8.09728C39.7657 9.08284 40.8412 9.55167 41.7377 9.14451Z" fill="#FFDE5D"/>
<path d="M37.0294 15.7126L38.9075 14.8813C39.6464 14.5542 39.9582 13.6472 39.6037 12.8554L37.7152 8.63697C37.3607 7.84522 36.4741 7.4683 35.7352 7.79536L33.8571 8.62665C33.1184 8.9536 32.8068 9.86087 33.1612 10.6526L35.0498 14.8711C35.4042 15.6628 36.2907 16.0395 37.0294 15.7126Z" fill="#F1C71B"/>
<path d="M35.7006 12.0703L36.9256 11.5139C37.822 11.1067 38.2004 9.97757 37.7702 8.99201C37.34 8.00621 36.2642 7.53724 35.3677 7.94439L34.1427 8.50078C33.2463 8.90792 32.8683 10.0372 33.2985 11.023C33.7287 12.0086 34.8041 12.4774 35.7006 12.0703Z" fill="#FFDE5D"/>
<path d="M40.1175 14.2095L41.9493 13.4333L38.6855 6.38281L36.8538 7.15896L40.1175 14.2095Z" fill="#F3A11E"/>
<path d="M40.1483 14.2123L41.9494 13.4237L40.3516 9.88672L38.5505 10.6753L40.1483 14.2123Z" fill="#E7842D"/>
<path d="M34.0823 17.1353L35.9141 16.3591L32.6504 9.30859L30.8186 10.0847L34.0823 17.1353Z" fill="#F3A11E"/>
<path d="M34.1131 17.1342L35.9142 16.3456L34.3164 12.8086L32.5153 13.5972L34.1131 17.1342Z" fill="#E7842D"/>
<path d="M4.83316 5.85466L27.2672 8.535L27.5791 5.53906L5.14507 2.85873L4.83316 5.85466Z" fill="#F1C71B"/>
<path d="M4.83243 5.86839L27.2406 8.53344L27.3984 6.92969L4.99023 4.26464L4.83243 5.86839Z" fill="#F3A11E"/>
<path d="M21.2755 10.2588L23.2319 10.5047L24.1387 2.79297L22.1823 2.5471L21.2755 10.2588Z" fill="#F3A11E"/>
<path d="M21.2752 10.2461L23.1952 10.504L23.6455 6.66406L21.7255 6.40613L21.2752 10.2461Z" fill="#E7842D"/>
<path d="M17.9282 9.80013L19.9342 10.0722C20.7236 10.1793 21.4449 9.57149 21.5453 8.71465L22.08 4.14938C22.1803 3.29253 21.6217 2.51085 20.8324 2.40378L18.8263 2.13168C18.037 2.02461 17.3156 2.63268 17.2152 3.48952L16.6805 8.05479C16.5802 8.91164 17.1388 9.69307 17.9282 9.80013Z" fill="#F1C71B"/>
<path d="M18.7445 5.99117L20.0669 6.16923C21.0347 6.29953 21.9185 5.55036 22.0406 4.49583C22.1627 3.44104 21.4769 2.48026 20.5091 2.34996L19.1867 2.17191C18.2189 2.04161 17.3354 2.79107 17.2132 3.84586C17.0911 4.90039 17.7767 5.86088 18.7445 5.99117Z" fill="#FFDE5D"/>
<path d="M11.2746 8.94844L13.2809 9.22059C14.0703 9.32766 14.7916 8.71986 14.892 7.86302L15.4267 3.2978C15.527 2.44096 14.9684 1.65928 14.179 1.55221L12.1727 1.28007C11.3836 1.17303 10.6622 1.78109 10.5619 2.63793L10.0272 7.20315C9.92684 8.05998 10.4855 8.84141 11.2746 8.94844Z" fill="#F1C71B"/>
<path d="M12.0914 5.14348L13.4136 5.32151C14.3816 5.45184 15.2652 4.70265 15.3873 3.64814C15.5094 2.59337 14.8238 1.63264 13.8558 1.50231L12.5336 1.32428C11.5656 1.19395 10.682 1.94339 10.5599 2.99816C10.4378 4.05267 11.1234 5.01315 12.0914 5.14348Z" fill="#FFDE5D"/>
<path d="M14.6213 9.41113L16.5776 9.65701L17.4844 1.94531L15.528 1.69943L14.6213 9.41113Z" fill="#F3A11E"/>
<path d="M14.6209 9.39846L16.5409 9.65638L16.9912 5.81641L15.0712 5.55848L14.6209 9.39846Z" fill="#E7842D"/>
<path d="M7.96991 8.55952L9.92625 8.80539L10.833 1.09375L8.87667 0.847874L7.96991 8.55952Z" fill="#F3A11E"/>
<path d="M7.9686 8.54691L9.88857 8.80482L10.3389 4.96484L8.4189 4.70692L7.9686 8.54691Z" fill="#E7842D"/>
</svg>
