<svg width="18" height="18" viewBox="0 0 18 18" fill="none" xmlns="http://www.w3.org/2000/svg">
<path d="M16.7591 10.2318L16.674 10.148L14.6769 8.1803C14.6768 8.18026 14.6768 8.18022 14.6767 8.18017C14.1979 7.71187 13.5432 7.49099 12.8774 7.56674C12.2176 7.64534 11.6373 8.01255 11.2846 8.57624L8.98975 12.2501L8.98952 12.2505C8.8804 12.4218 8.65932 12.4814 8.48242 12.3811C8.48238 12.3811 8.48234 12.3811 8.4823 12.3811L6.4625 11.2547L16.7591 10.2318ZM16.7591 10.2318V10.1124M16.7591 10.2318V10.1124M16.7591 10.1124V2.96108C16.7591 2.0127 15.9872 1.24085 15.0388 1.24085H2.961C2.01262 1.24085 1.24077 2.0127 1.24077 2.96108L1.24062 15.039C1.24062 15.0829 1.24685 15.1282 1.25247 15.169C1.25481 15.186 1.25705 15.2023 1.25868 15.2173L1.27344 15.3532M16.7591 10.1124L1.27344 15.3532M1.27344 15.3532L1.34984 15.2399M1.27344 15.3532L1.34984 15.2399M1.34984 15.2399L3.57637 11.9377C3.57639 11.9376 3.57642 11.9376 3.57645 11.9376M1.34984 15.2399L3.57645 11.9376M1.97273 16.4456L2.00096 16.4037L4.56183 12.6064L4.56199 12.6062C4.85704 12.1739 5.42694 12.0402 5.88269 12.2952L7.89927 13.4197L7.89957 13.4199C8.62258 13.8296 9.54268 13.5981 9.997 12.8859C9.99704 12.8858 9.99708 12.8857 9.99712 12.8857L12.2946 9.20725L12.2946 9.20716C12.4547 8.95213 12.7182 8.78428 13.0181 8.74951C13.3209 8.71181 13.6235 8.81607 13.8421 9.03028L13.8422 9.03038L16.7438 11.8896L16.7587 11.9043V11.9252V15.039L1.97273 16.4456ZM1.97273 16.4456L2.01485 16.4734C2.28654 16.6528 2.61158 16.7592 2.96108 16.7592H15.0338L1.97273 16.4456ZM3.57645 11.9376C4.2217 10.9901 5.46112 10.6971 6.46247 11.2546L3.57645 11.9376ZM2.96108 0.05H15.0389C16.6442 0.05 17.95 1.35575 17.95 2.96108V15.0389C17.95 16.6442 16.6442 17.95 15.0389 17.95H2.96108C1.35575 17.95 0.05 16.6442 0.05 15.0389V2.96108C0.05 1.35575 1.35575 0.05 2.96108 0.05Z" fill="#2457C5" stroke="white" stroke-width="0.1"/>
<path d="M8.02588 5.49863C8.02588 6.76032 6.99963 7.78711 5.7374 7.78711C4.47586 7.78711 3.44893 6.76031 3.44893 5.49863C3.44893 4.23695 4.47572 3.21016 5.7374 3.21016C6.99908 3.21016 8.02588 4.23695 8.02588 5.49863ZM7.01818 5.49793C7.01818 4.79159 6.44374 4.21715 5.7374 4.21715C5.03163 4.21715 4.45662 4.79216 4.45662 5.49793C4.45662 6.20426 5.03107 6.77871 5.7374 6.77871C6.44374 6.77871 7.01818 6.20426 7.01818 5.49793Z" fill="#2457C5" stroke="white" stroke-width="0.1"/>
</svg>
