<svg width="18" height="18" viewBox="0 0 18 18" fill="none" xmlns="http://www.w3.org/2000/svg">
<rect x="0.5" y="0.5" width="17" height="17" rx="1.5" stroke="#2457C5"/>
<path d="M6.50903 13.28C6.01302 13.28 5.59465 13.1908 5.25391 13.0124C4.91317 12.8298 4.65438 12.5705 4.47754 12.2344C4.30501 11.8983 4.21875 11.4978 4.21875 11.0331C4.21875 10.5725 4.30717 10.1742 4.48401 9.83811C4.66085 9.49787 4.91748 9.23646 5.25391 9.05389C5.59033 8.87131 5.99361 8.78003 6.46375 8.78003C6.72254 8.78003 6.97486 8.81322 7.22071 8.87961C7.47087 8.94185 7.70162 9.04559 7.91297 9.19081C7.98629 9.24061 8.02726 9.30285 8.03589 9.37753C8.04883 9.44807 8.03589 9.51654 7.99707 9.58293C7.96257 9.64517 7.91081 9.68873 7.8418 9.71363C7.77279 9.73438 7.69515 9.71985 7.60889 9.67006C7.44068 9.55803 7.26384 9.47712 7.07837 9.42733C6.89291 9.37338 6.68803 9.34641 6.46375 9.34641C5.95911 9.34641 5.57524 9.49372 5.31213 9.78832C5.04903 10.0788 4.91748 10.4937 4.91748 11.0331C4.91748 11.585 5.05119 12.0041 5.3186 12.2904C5.59033 12.5767 5.99577 12.7198 6.53491 12.7198C6.86271 12.7198 7.18836 12.668 7.51184 12.5642V11.3879H6.67725C6.49178 11.3879 6.39905 11.3049 6.39905 11.1389C6.39905 10.9813 6.49178 10.9024 6.67725 10.9024H7.79651C7.98198 10.9024 8.07471 10.9916 8.07471 11.17V12.7385C8.07471 12.8962 8.01433 12.9978 7.89356 13.0435C7.70809 13.114 7.49028 13.1721 7.24011 13.2177C6.98995 13.2592 6.74626 13.28 6.50903 13.28Z" fill="#2457C5"/>
<path d="M9.4427 13.2675C9.21842 13.2675 9.10628 13.1576 9.10628 12.9377V9.12235C9.10628 8.90243 9.21842 8.79248 9.4427 8.79248C9.66699 8.79248 9.77913 8.90243 9.77913 9.12235V12.9377C9.77913 13.1576 9.66699 13.2675 9.4427 13.2675Z" fill="#2457C5"/>
<path d="M11.1933 13.2675C10.956 13.2675 10.8374 13.1534 10.8374 12.9252V9.18459C10.8374 8.95223 10.9582 8.83605 11.1997 8.83605H13.503C13.6884 8.83605 13.7812 8.92111 13.7812 9.09123C13.7812 9.26965 13.6884 9.35886 13.503 9.35886H11.5103V10.7593H13.3736C13.559 10.7593 13.6518 10.8443 13.6518 11.0144C13.6518 11.1929 13.559 11.2821 13.3736 11.2821H11.5103V12.9252C11.5103 13.1534 11.4046 13.2675 11.1933 13.2675Z" fill="#2457C5"/>
<path d="M6.50903 13.28C6.01302 13.28 5.59465 13.1908 5.25391 13.0124C4.91317 12.8298 4.65438 12.5705 4.47754 12.2344C4.30501 11.8983 4.21875 11.4978 4.21875 11.0331C4.21875 10.5725 4.30717 10.1742 4.48401 9.83811C4.66085 9.49787 4.91748 9.23646 5.25391 9.05389C5.59033 8.87131 5.99361 8.78003 6.46375 8.78003C6.72254 8.78003 6.97486 8.81322 7.22071 8.87961C7.47087 8.94185 7.70162 9.04559 7.91297 9.19081C7.98629 9.24061 8.02726 9.30285 8.03589 9.37753C8.04883 9.44807 8.03589 9.51654 7.99707 9.58293C7.96257 9.64517 7.91081 9.68873 7.8418 9.71363C7.77279 9.73438 7.69515 9.71985 7.60889 9.67006C7.44068 9.55803 7.26384 9.47712 7.07837 9.42733C6.89291 9.37338 6.68803 9.34641 6.46375 9.34641C5.95911 9.34641 5.57524 9.49372 5.31213 9.78832C5.04903 10.0788 4.91748 10.4937 4.91748 11.0331C4.91748 11.585 5.05119 12.0041 5.3186 12.2904C5.59033 12.5767 5.99577 12.7198 6.53491 12.7198C6.86271 12.7198 7.18836 12.668 7.51184 12.5642V11.3879H6.67725C6.49178 11.3879 6.39905 11.3049 6.39905 11.1389C6.39905 10.9813 6.49178 10.9024 6.67725 10.9024H7.79651C7.98198 10.9024 8.07471 10.9916 8.07471 11.17V12.7385C8.07471 12.8962 8.01433 12.9978 7.89356 13.0435C7.70809 13.114 7.49028 13.1721 7.24011 13.2177C6.98995 13.2592 6.74626 13.28 6.50903 13.28Z" stroke="#2457C5" stroke-width="0.2"/>
<path d="M9.4427 13.2675C9.21842 13.2675 9.10628 13.1576 9.10628 12.9377V9.12235C9.10628 8.90243 9.21842 8.79248 9.4427 8.79248C9.66699 8.79248 9.77913 8.90243 9.77913 9.12235V12.9377C9.77913 13.1576 9.66699 13.2675 9.4427 13.2675Z" stroke="#2457C5" stroke-width="0.2"/>
<path d="M11.1933 13.2675C10.956 13.2675 10.8374 13.1534 10.8374 12.9252V9.18459C10.8374 8.95223 10.9582 8.83605 11.1997 8.83605H13.503C13.6884 8.83605 13.7812 8.92111 13.7812 9.09123C13.7812 9.26965 13.6884 9.35886 13.503 9.35886H11.5103V10.7593H13.3736C13.559 10.7593 13.6518 10.8443 13.6518 11.0144C13.6518 11.1929 13.559 11.2821 13.3736 11.2821H11.5103V12.9252C11.5103 13.1534 11.4046 13.2675 11.1933 13.2675Z" stroke="#2457C5" stroke-width="0.2"/>
<rect x="12" width="6" height="6" fill="white"/>
<path d="M11.7925 0V5.68514C11.7925 6.07174 12.1041 6.38514 12.4907 6.38514C13.6828 6.38514 16.1597 6.38514 18 6.38514" stroke="#2457C5"/>
<path d="M12.2769 0L17.9923 5.88672H16.6485L12.2769 1.28764V0Z" fill="#2457C5"/>
</svg>
