<svg width="14" height="14" viewBox="0 0 14 14" fill="none" xmlns="http://www.w3.org/2000/svg">
<path d="M4.66666 0.937501C4.66666 0.419734 5.08639 0 5.60416 0H12.5C13.3284 0 14 0.671573 14 1.5V1.79792C14 2.62635 13.3284 3.29792 12.5 3.29792H5.60416C5.08639 3.29792 4.66666 2.87819 4.66666 2.36042V0.937501Z" fill="url(#paint0_linear_255_12986)"/>
<path fill-rule="evenodd" clip-rule="evenodd" d="M12.4444 0H10.9926V1.47368C10.9926 0.982455 11.283 0 12.4444 0ZM4.36805 3.8147e-06C2.81475 3.8147e-06 1.55555 1.2592 1.55555 2.8125V11.1875C1.55555 12.7408 2.81475 14 4.36805 14H8.18008C9.73338 14 10.9926 12.7408 10.9926 11.1875V3.8147e-06H4.36805Z" fill="url(#paint1_linear_255_12986)"/>
<path fill-rule="evenodd" clip-rule="evenodd" d="M1.5 10.5C0.671573 10.5 0 11.1716 0 12V12.5C0 13.3284 0.671572 14 1.5 14H6.99999V12C6.99999 11.1716 6.32842 10.5 5.49999 10.5H1.5ZM8.40972 14C7.93981 14 7 13.6889 7 12.4444V14H8.40972Z" fill="url(#paint2_linear_255_12986)"/>
<path d="M3.9375 4.375H8.3125" stroke="#E1E4FF" stroke-width="0.75" stroke-linecap="round"/>
<path d="M3.9375 6.5625H8.3125" stroke="#E1E4FF" stroke-width="0.75" stroke-linecap="round"/>
<path d="M3.9375 8.75H8.3125" stroke="#E1E4FF" stroke-width="0.75" stroke-linecap="round"/>
<defs>
<linearGradient id="paint0_linear_255_12986" x1="5.02563" y1="-0.34715" x2="5.52066" y2="4.66205" gradientUnits="userSpaceOnUse">
<stop stop-color="#1F24B4"/>
<stop offset="1" stop-color="#4286DE"/>
</linearGradient>
<linearGradient id="paint1_linear_255_12986" x1="1.97435" y1="-1.47368" x2="11.906" y2="18.7702" gradientUnits="userSpaceOnUse">
<stop stop-color="#4B6FED"/>
<stop offset="1" stop-color="#75A7E8"/>
</linearGradient>
<linearGradient id="paint2_linear_255_12986" x1="-1.03018" y1="9.70176" x2="-0.00424114" y2="16.5243" gradientUnits="userSpaceOnUse">
<stop stop-color="#393ECA"/>
<stop offset="1" stop-color="#4286DE"/>
</linearGradient>
</defs>
</svg>
