<svg width="17" height="18" viewBox="0 0 17 18" fill="none" xmlns="http://www.w3.org/2000/svg">
<path d="M8.14258 0.875366C3.68189 0.875366 0.0527344 4.52029 0.0527344 9.00037C0.0527344 13.4804 3.68189 17.1254 8.14258 17.1254C12.6033 17.1254 16.2324 13.4804 16.2324 9.00037C16.2324 4.52029 12.6033 0.875366 8.14258 0.875366ZM10.8379 4.63201C11.3954 4.63278 11.9402 4.79953 12.4034 5.11119C12.8666 5.42284 13.2274 5.86542 13.4403 6.38297C13.6531 6.90052 13.7084 7.46983 13.5991 8.01893C13.4899 8.56803 13.221 9.07229 12.8265 9.46796C12.432 9.86364 11.9296 10.133 11.3827 10.2419C10.8358 10.3509 10.2691 10.2946 9.75403 10.0801C9.23901 9.86565 8.79885 9.50266 8.48918 9.03702C8.17951 8.57138 8.01423 8.02399 8.01423 7.46404C8.01449 7.09187 8.08773 6.7234 8.22977 6.37967C8.37181 6.03593 8.57987 5.72366 8.84207 5.46068C9.10427 5.1977 9.41548 4.98917 9.75793 4.84698C10.1004 4.7048 10.4673 4.63175 10.8379 4.63201ZM4.80552 5.66169C5.2617 5.66231 5.70746 5.79874 6.08646 6.05373C6.46546 6.30872 6.76069 6.67083 6.93484 7.0943C7.10899 7.51776 7.15423 7.98357 7.06486 8.43286C6.97548 8.88214 6.7555 9.29473 6.43272 9.61848C6.10993 9.94223 5.69883 10.1626 5.25137 10.2518C4.80391 10.3409 4.34018 10.2949 3.91878 10.1194C3.49738 9.94391 3.13723 9.64691 2.88386 9.26592C2.63048 8.88492 2.49525 8.43705 2.49525 7.97888C2.4954 7.67436 2.55528 7.37286 2.67148 7.09159C2.78767 6.81032 2.9579 6.5548 3.17244 6.33962C3.38698 6.12444 3.64162 5.95382 3.92183 5.8375C4.20204 5.72118 4.50232 5.66144 4.80552 5.66169ZM1.85545 11.7164C2.80834 11.1972 4.02843 10.9375 4.80552 10.9375C5.38892 10.9375 6.14034 11.0547 6.87971 11.3359C6.38408 11.6137 5.93732 11.9715 5.55733 12.3949C5.04433 12.9808 4.7499 13.6808 4.7499 14.3804V14.9664C3.46173 14.2253 2.44647 13.0861 1.85545 11.7183V11.7164ZM8.14258 15.8754C7.35505 15.876 6.57338 15.7395 5.83231 15.4719V14.4152C5.83231 12.3609 9.16742 11.3258 10.8379 11.3258C11.7325 11.3258 13.1085 11.6238 14.1909 12.2168C13.6084 13.3206 12.7377 14.2444 11.6722 14.8889C10.6066 15.5335 9.38646 15.8745 8.14258 15.8754Z" fill="white"/>
</svg>
